<svg width="106" height="106" viewBox="0 0 106 106" fill="none" xmlns="http://www.w3.org/2000/svg">
<g clip-path="url(#clip0_6238_44213)">
<path d="M104.829 84.1134C105.751 82.4187 105.673 80.3674 104.632 78.761L94.497 63.1358C91.4282 58.4018 86.403 55.5784 81.0605 55.5784H52.9999C52.9672 55.5784 52.9345 55.585 52.9018 55.5882C50.6215 54.561 48.3248 53.5435 46.0838 52.5555C44.8242 51.996 43.5613 51.4366 42.2985 50.8771V45.6295C44.9289 43.5978 46.7479 40.5749 47.1994 37.1233C49.0478 36.8779 50.4841 35.2454 50.4841 33.2694C50.4841 31.5158 49.3554 30.0305 47.8079 29.5463H53.0948C53.4678 29.5463 53.808 29.3369 53.9749 29.0032C54.1417 28.6695 54.1025 28.2704 53.88 27.9726L48.7926 21.2233C48.1547 20.376 47.7392 19.3749 47.5887 18.2985L47.0391 15.0334C46.7446 12.9331 44.9223 11.3496 42.8023 11.3496H42.7925L34.4499 11.366L26.1008 11.3496H26.0943C23.971 11.3496 22.152 12.9331 21.8608 15.0073L21.3046 18.3247C21.1574 19.3749 20.7419 20.376 20.1039 21.2233L15.0166 27.9726C14.7909 28.2704 14.7549 28.6695 14.9217 29.0032C15.0886 29.3369 15.4288 29.5463 15.7985 29.5463H20.8335C19.2893 30.0305 18.1606 31.5158 18.1606 33.2694C18.1606 35.3337 19.7277 37.0252 21.7005 37.1495C22.1422 40.4996 23.8794 43.444 26.392 45.4692V50.9491C25.1291 51.5086 23.863 52.068 22.6002 52.6274C19.7277 53.8968 16.7604 55.212 13.8519 56.5337C9.1637 58.6636 6.41228 61.3724 4.65542 65.5895C2.68919 70.3105 0.909436 82.0653 0.327091 94.1768C0.300918 94.7166 0.719683 95.1779 1.26277 95.2041H1.30857C1.73061 95.2041 2.09376 94.9326 2.23116 94.5498H16.1093C16.5968 94.6905 17.1039 94.769 17.6241 94.769H28.5447C28.6428 94.769 28.7377 94.7526 28.8293 94.7232C29.0452 94.7526 29.2644 94.769 29.4869 94.769H103.818C104.361 94.769 104.799 94.3306 104.799 93.7875C104.799 93.2444 104.361 92.806 103.818 92.806H63.0896C63.7799 91.9423 64.2019 90.8561 64.2183 89.6718L64.709 86.5867H71.8902C71.8575 86.6816 71.8378 86.783 71.8378 86.8877C71.8378 89.927 74.3112 92.4003 77.3505 92.4003C80.3898 92.4003 82.8631 89.927 82.8631 86.8877C82.8631 86.783 82.8402 86.6816 82.8108 86.5867H85.2252C85.1991 86.6783 85.1762 86.7732 85.1762 86.8746C85.1762 89.9139 87.6495 92.384 90.6888 92.384C93.7281 92.384 96.1982 89.9139 96.1982 86.8746C96.1982 86.7732 96.1786 86.6783 96.1491 86.5867H100.805C102.483 86.5867 103.988 85.6609 104.829 84.1134Z" fill="white"/>
<path d="M60.9956 36.25C61.0447 36.25 61.1003 36.2533 61.1527 36.2533H73.8825C73.9054 36.2533 73.9283 36.2533 73.9512 36.2533C74.0003 36.2533 74.0493 36.2533 74.1017 36.2533C76.3525 36.2533 78.1846 34.4212 78.1846 32.1703C78.1846 30.2074 76.7909 28.5618 74.9425 28.1757C75.0733 27.7439 75.1388 27.2924 75.1388 26.8409C75.1388 24.289 73.0646 22.2148 70.5127 22.2148C68.998 22.2148 67.5879 22.964 66.7308 24.1778C66.3054 24.0306 65.854 23.9553 65.3992 23.9553C63.6653 23.9553 62.1701 25.0219 61.5812 26.5857C61.4406 26.5726 61.2966 26.5661 61.1559 26.5661C58.4863 26.5661 56.314 28.7384 56.314 31.4081C56.314 34.0777 58.3849 36.1813 60.9989 36.2468L60.9956 36.25ZM61.1527 28.2019C61.4275 28.2019 61.7023 28.2379 61.9673 28.3066C62.1898 28.3655 62.4253 28.3262 62.6216 28.1986C62.8146 28.0743 62.9455 27.8714 62.9815 27.6424C63.1745 26.4516 64.1887 25.5879 65.3959 25.5879C65.8343 25.5879 66.2662 25.7056 66.6424 25.9314C66.842 26.0492 67.0808 26.0786 67.3 26.0099C67.5192 25.9412 67.7024 25.7842 67.8006 25.5748C68.288 24.5279 69.3513 23.8506 70.5095 23.8506C72.1583 23.8506 73.4997 25.192 73.4997 26.8409C73.4997 27.3316 73.3852 27.7962 73.1562 28.2313C73.1104 28.3164 73.0613 28.4014 73.009 28.48C72.829 28.7482 72.8258 29.095 72.9959 29.3698C73.166 29.6414 73.4833 29.7919 73.8007 29.7461C73.8367 29.7395 73.8727 29.7363 73.9087 29.7363C73.925 29.7363 73.9381 29.7363 73.9545 29.7363C74.0003 29.733 74.0493 29.7297 74.0984 29.7297C75.4463 29.7297 76.5456 30.8257 76.5456 32.1769C76.5456 33.5281 75.4496 34.624 74.0984 34.624C74.0493 34.624 74.0035 34.624 73.9545 34.6175C73.8923 34.611 73.8301 34.6142 73.768 34.624H61.1527C61.133 34.624 61.1134 34.624 61.0643 34.624C59.314 34.5782 57.9432 33.1714 57.9432 31.4179C57.9432 29.6643 59.3827 28.2117 61.1494 28.2117L61.1527 28.2019Z" fill="white"/>
<path d="M86.017 43.8368C86.0595 43.8368 86.102 43.84 86.1478 43.84H95.0401C95.0564 43.84 95.076 43.84 95.0924 43.84C95.1251 43.84 95.1578 43.84 95.1938 43.84C96.9016 43.84 98.292 42.4496 98.292 40.7418C98.292 39.3416 97.3596 38.154 96.0804 37.7745C96.136 37.5258 96.1622 37.2739 96.1622 37.0187C96.1622 35.1016 94.6017 33.541 92.6845 33.541C91.6081 33.541 90.6005 34.0448 89.9494 34.8726C89.6779 34.7973 89.3965 34.7581 89.1119 34.7581C87.8589 34.7581 86.7694 35.4909 86.2852 36.5836C86.2394 36.5836 86.1936 36.5836 86.1478 36.5836C84.1456 36.5836 82.5164 38.2129 82.5164 40.2151C82.5164 42.2173 84.0671 43.791 86.017 43.8433V43.8368ZM86.1478 38.2161C86.318 38.2161 86.4881 38.239 86.6549 38.2816C86.8774 38.3405 87.1162 38.3012 87.3093 38.1736C87.5023 38.0493 87.6331 37.8465 87.6691 37.6174C87.7804 36.9173 88.402 36.3906 89.1119 36.3906C89.3736 36.3906 89.6321 36.4626 89.8578 36.5967C90.0574 36.7145 90.2962 36.7439 90.5154 36.6752C90.7379 36.6065 90.9178 36.4495 91.016 36.2401C91.317 35.5956 91.9713 35.1768 92.6845 35.1768C93.6987 35.1768 94.5264 36.0045 94.5264 37.0187C94.5264 37.3197 94.4544 37.6076 94.3138 37.8759C94.2876 37.9282 94.2549 37.9773 94.2254 38.0264C94.0455 38.2947 94.0422 38.6414 94.2123 38.9163C94.3825 39.1878 94.6998 39.335 95.0204 39.2925C95.0368 39.2925 95.0499 39.2892 95.0662 39.2892C95.0826 39.2892 95.099 39.2892 95.1153 39.2892C95.1415 39.2892 95.1644 39.2892 95.1906 39.2892C95.9954 39.2892 96.653 39.9435 96.653 40.7516C96.653 41.5597 95.9986 42.214 95.1906 42.214C95.1644 42.214 95.1382 42.214 95.112 42.214C95.0891 42.214 95.0662 42.214 95.0401 42.214C95.0073 42.214 94.9746 42.214 94.9419 42.2206H86.089C85.0028 42.1911 84.1489 41.3143 84.1489 40.2249C84.1489 39.1355 85.042 38.2292 86.1446 38.2292L86.1478 38.2161Z" fill="white"/>
<path d="M73.8826 35.4274C73.9545 35.4339 74.0265 35.4372 74.1017 35.4372C75.9044 35.4372 77.3668 33.9748 77.3668 32.1721C77.3668 30.3695 75.9044 28.9071 74.1017 28.9071C74.0265 28.9071 73.9545 28.9071 73.8826 28.9169C73.8171 28.9169 73.7517 28.9267 73.6895 28.9332C73.7582 28.8285 73.8237 28.7206 73.8826 28.6061C74.1606 28.0761 74.3177 27.4774 74.3177 26.8394C74.3177 24.739 72.6132 23.0312 70.5095 23.0312C68.985 23.0312 67.6665 23.9309 67.0613 25.2298C66.5738 24.9419 66.0045 24.7717 65.396 24.7717C63.7733 24.7717 62.4221 25.9593 62.1735 27.5133C61.8463 27.4283 61.5061 27.3825 61.1527 27.3825C58.928 27.3825 57.1287 29.1851 57.1287 31.4066C57.1287 33.628 58.8724 35.3717 61.0448 35.4306C61.0808 35.4306 61.1167 35.4306 61.1527 35.4306H73.8826V35.4208V35.4274Z" fill="#FEBC22"/>
<path d="M69.9077 64.8008H66.8455L66.1912 73.0452H74.0725C76.0125 73.0452 77.0333 71.3996 75.7312 69.9601L72.8325 66.0996C72.0866 65.2719 71.0233 64.8008 69.9077 64.8008Z" fill="#FEBC22"/>
<path d="M83.511 70.2114C84.7837 71.7981 86.7761 72.7632 88.9223 72.832L99.6564 73.0511L93.3749 64.4043H82.1762C80.7989 64.4043 80.0039 65.8405 80.8218 66.8613L83.5078 70.2081L83.511 70.2114Z" fill="#FEBC22"/>
<path d="M104.103 79.8262H65.105L64.2314 85.6038H100.805C103.592 85.6038 105.293 82.4075 104.103 79.8262Z" fill="#FFE4A7"/>
<path d="M85.7225 43.3606C85.7486 43.3606 85.7781 43.3606 85.8043 43.3606H95.3901V43.3541C95.4457 43.3606 95.498 43.3606 95.5536 43.3606C96.9114 43.3606 98.0106 42.2581 98.0106 40.9036C98.0106 39.5492 96.9081 38.4466 95.5536 38.4466C95.498 38.4466 95.4424 38.4466 95.3901 38.4532C95.341 38.4532 95.2919 38.4597 95.2428 38.4663C95.2952 38.3878 95.3443 38.306 95.3901 38.2209C95.5994 37.8218 95.7172 37.3703 95.7172 36.8894C95.7172 35.3059 94.4315 34.0234 92.8513 34.0234C91.703 34.0234 90.7084 34.7007 90.2536 35.6789C89.8872 35.4597 89.4586 35.3354 89.0006 35.3354C87.777 35.3354 86.7628 36.2285 86.5731 37.3997C86.3277 37.3343 86.0693 37.3016 85.8043 37.3016C84.1292 37.3016 82.7715 38.6593 82.7715 40.3344C82.7715 42.0094 84.0834 43.3213 85.7225 43.3639V43.3606Z" fill="#FEBC22"/>
<path d="M48.0926 21.9192H48.0893L48.0075 21.8112C47.2682 20.8297 46.7905 19.6748 46.6204 18.4578L46.0675 15.1698C45.8385 13.5406 44.4415 12.3268 42.7959 12.3301L34.4467 12.3464L26.0976 12.3301C24.452 12.3301 23.055 13.5406 22.826 15.1698L22.2731 18.4578C22.103 19.6748 21.6253 20.8297 20.8859 21.8112L15.7986 28.5638H53.0949L48.1449 21.9977L48.0893 21.9192H48.0926Z" fill="#FFE4A7"/>
<path d="M48.0926 21.919H48.0893L48.0075 21.811C47.7982 21.5329 47.6117 21.2385 47.4448 20.9375H21.4486C21.2818 21.2418 21.0953 21.5329 20.8859 21.811L15.7986 28.5636H53.0949L48.1449 21.9975L48.0893 21.919H48.0926Z" fill="#FEBC22"/>
<path d="M104.829 84.1121C105.748 82.4174 105.673 80.3661 104.632 78.7597L94.497 63.1345C91.4282 58.4005 86.4031 55.5771 81.0638 55.5771H53.0032C52.9705 55.5771 52.9378 55.5837 52.9051 55.5869C50.6215 54.5597 48.3249 53.5455 46.0871 52.5542C44.8242 51.9947 43.5647 51.4385 42.3018 50.8758V45.6282C44.9289 43.5965 46.7512 40.5735 47.1994 37.122C49.0479 36.8734 50.4841 35.2408 50.4841 33.268C50.4841 31.5145 49.3554 30.0324 47.8112 29.545H53.0981C53.4711 29.545 53.8113 29.3356 53.9782 29.0019C54.145 28.6682 54.109 28.269 53.8833 27.9746L48.796 21.222C48.158 20.3747 47.7425 19.3735 47.592 18.2972L47.0424 15.0354C46.7479 12.935 44.9257 11.3516 42.8057 11.3516H42.7991L34.4533 11.3679L26.1041 11.3516H26.0976C23.9776 11.3516 22.1553 12.935 21.8641 15.0092L21.3079 18.3234C21.1607 19.3735 20.7452 20.3747 20.1073 21.222L15.0199 27.9746C14.7974 28.2723 14.7582 28.6714 14.925 29.0019C15.0919 29.3356 15.4321 29.545 15.8051 29.545H20.8401C19.2926 30.0292 18.1672 31.5145 18.1672 33.268C18.1672 35.3324 19.7343 37.0238 21.7071 37.1482C22.152 40.4983 23.886 43.446 26.3986 45.4679V50.9478C25.1357 51.5105 23.8729 52.07 22.6068 52.6261C19.7343 53.8955 16.767 55.2107 13.8585 56.5324C9.17029 58.6622 6.41887 61.3711 4.66202 65.5882C2.69578 70.3092 0.916028 82.064 0.333683 94.1755C0.30751 94.7186 0.726275 95.1766 1.26609 95.2028C1.28245 95.2028 1.29881 95.2028 1.31516 95.2028C1.83535 95.2028 2.27047 94.7939 2.29337 94.2671C2.96078 80.3726 4.92702 70.0507 6.47448 66.3407C8.04158 62.5718 10.4168 60.249 14.6699 58.3155C17.5685 56.997 20.5326 55.6851 23.4018 54.419C24.6842 53.853 25.9667 53.2837 27.2459 52.7145L28.1096 53.2248C30.0333 54.3601 32.1762 54.9293 34.3191 54.9293C36.462 54.9293 38.7718 54.3176 40.7445 53.0972L41.4676 52.649C42.7435 53.215 44.0194 53.781 45.2986 54.347C48.1678 55.6164 51.1319 56.9283 54.0338 58.2467C56.0426 59.1595 57.4886 60.2163 58.7449 61.7245H33.0857C30.2558 61.7245 27.9493 64.0048 27.9068 66.8249L25.0834 84.6257H19.3417C19.3777 84.5243 19.4006 84.4131 19.4006 84.2985V65.9776C19.4006 65.4345 18.9622 64.9961 18.4191 64.9961C17.876 64.9961 17.4376 65.4345 17.4376 65.9776V84.2985C17.4376 84.4131 17.4605 84.5243 17.4965 84.6257H14.5128C13.5902 84.6257 12.7265 85.0772 12.1998 85.8329C11.6862 86.569 11.5586 87.5047 11.8465 88.3521L12.4452 91.061C12.455 91.1035 12.4681 91.1493 12.4844 91.1885C13.2762 93.3282 15.3405 94.7644 17.6241 94.7644H28.5447C28.6429 94.7644 28.7378 94.7448 28.8294 94.7186C29.0453 94.7448 29.2645 94.7644 29.487 94.7644H103.818C104.361 94.7644 104.799 94.326 104.799 93.7829C104.799 93.2398 104.361 92.8014 103.818 92.8014H63.0896C63.7766 91.9377 64.1987 90.8483 64.2183 89.664L64.709 86.5789H71.8902C71.8608 86.6737 71.8379 86.7751 71.8379 86.8798C71.8379 89.9192 74.3112 92.3925 77.3505 92.3925C80.3898 92.3925 82.8632 89.9192 82.8632 86.8798C82.8632 86.7751 82.8436 86.6737 82.8108 86.5789H85.2253C85.1958 86.6705 85.1762 86.7653 85.1762 86.8667C85.1762 89.9061 87.6495 92.3761 90.6856 92.3761C93.7216 92.3761 96.195 89.9028 96.195 86.8667C96.195 86.7653 96.1753 86.6705 96.1459 86.5789H100.798C102.476 86.5789 103.981 85.653 104.825 84.1055L104.829 84.1121ZM41.304 31.6257C41.2386 30.8013 40.6857 30.1535 40.0084 30.1535C39.3312 30.1535 38.7783 30.8013 38.7129 31.6257H37.1163C36.4358 31.6257 35.8829 32.1786 35.8829 32.8591V32.882C35.4216 32.6628 34.9047 32.5385 34.3616 32.5385C33.8186 32.5385 33.3016 32.6628 32.8403 32.882V32.8591C32.8403 32.1786 32.2874 31.6257 31.607 31.6257H30.1838C30.1184 30.8013 29.5655 30.1535 28.8883 30.1535C28.211 30.1535 27.6581 30.8013 27.5927 31.6257H24.4945C24.1117 31.6257 23.7747 31.8024 23.549 32.0772V29.5417H45.351V32.3455C45.1579 31.9201 44.7294 31.6257 44.2321 31.6257H41.3073H41.304ZM48.5179 33.2648C48.5179 33.942 48.1874 34.5407 47.6934 34.8842V31.6453C48.1907 31.9888 48.5179 32.5875 48.5179 33.2648ZM23.2447 18.6211L23.8009 15.3069C23.9612 14.1684 24.946 13.3113 26.0943 13.3113H26.0976L34.45 13.3276L42.7991 13.3113H42.8024C43.9507 13.3113 44.9355 14.1684 45.0991 15.3331L45.6487 18.5949C45.7665 19.4357 46.0151 20.2536 46.3815 21.0159H22.5152C22.8816 20.2569 23.1302 19.4455 23.2447 18.6243V18.6211ZM21.2491 22.9658C21.2916 22.9723 21.3308 22.9788 21.3734 22.9788H47.5462C47.5822 22.9788 47.6149 22.9723 47.6509 22.969L51.1286 27.5853H17.7681L21.2491 22.969V22.9658ZM20.9481 34.8875C20.4508 34.544 20.1236 33.9453 20.1236 33.268C20.1236 32.5908 20.4541 31.9921 20.9481 31.6486V34.8875ZM23.5588 35.9802C24.2328 37.8058 25.9863 39.1111 28.0474 39.1111C30.4979 39.1111 32.5197 37.2692 32.8044 34.894C33.1642 34.4295 33.727 34.1285 34.3616 34.1285C34.9963 34.1285 35.5591 34.4295 35.9189 34.894C36.2003 37.2692 38.2221 39.1111 40.6758 39.1111C42.966 39.1111 44.8798 37.5015 45.351 35.3488V35.4502C45.351 41.4601 40.4599 46.3512 34.45 46.3512C28.44 46.3512 23.8402 41.7448 23.5621 35.9802H23.5588ZM29.1009 51.54L28.3517 51.0983V46.7765C30.1674 47.758 32.2416 48.3142 34.4467 48.3142C36.6518 48.3142 38.5689 47.794 40.3356 46.8812V51.0394L39.7042 51.432C36.4555 53.444 32.3921 53.4866 29.1009 51.54ZM97.9289 72.0398L88.9549 71.8566C87.0835 71.7945 85.3758 70.9733 84.2765 69.6025L81.5905 66.2556C81.4662 66.0986 81.4433 65.9317 81.5251 65.7616C81.6102 65.585 81.8261 65.3952 82.1794 65.3952H93.3781C93.4566 65.3952 93.5286 65.3854 93.6006 65.3658L97.9289 72.0398ZM56.8703 57.5434H81.0573C85.4347 57.5434 89.5765 59.7288 92.3083 63.4322H82.1761C81.1194 63.4322 80.187 63.9982 79.7519 64.9143C79.3462 65.7584 79.464 66.7464 80.0561 67.4858L82.7421 70.8326C84.2013 72.6516 86.4423 73.7411 88.8993 73.8196L99.2179 74.0322L102.293 78.7728H65.9457L66.6982 74.029H74.0691C75.4563 74.029 76.6079 73.3681 77.079 72.3081C77.5043 71.3495 77.2851 70.2405 76.4868 69.3408L73.6111 65.513C73.5947 65.4901 73.5751 65.4672 73.5555 65.4443C72.6231 64.4137 71.2915 63.8248 69.9044 63.8248H66.8421C66.8225 63.8248 66.8061 63.8281 66.7865 63.8314C65.841 62.562 64.3328 61.7343 62.6316 61.7343H61.1855C59.9685 59.9578 58.6075 58.6295 56.867 57.5466L56.8703 57.5434ZM67.6895 65.7878H69.9076C70.7288 65.7878 71.5173 66.1313 72.0767 66.7333L74.9492 70.5545C74.9655 70.5774 74.9852 70.6003 75.0048 70.6232C75.1749 70.813 75.4399 71.1794 75.2894 71.5131C75.1749 71.7683 74.7889 72.0693 74.0724 72.0693H67.0123L67.8073 67.067C67.8138 67.0147 67.8203 66.9656 67.8203 66.9132C67.8203 66.5272 67.7745 66.1509 67.6928 65.7878H67.6895ZM14.346 90.5702L13.7473 87.8711C13.7374 87.8286 13.7244 87.7828 13.708 87.7435C13.6099 87.4785 13.6458 87.1906 13.8094 86.9584C13.973 86.7261 14.2282 86.5919 14.5095 86.5919H24.766L24.3145 89.4382C24.308 89.4906 24.3015 89.5397 24.3015 89.592C24.3015 90.809 24.7268 91.9247 25.4302 92.808H17.6176C16.1748 92.808 14.8662 91.9116 14.3427 90.5702H14.346ZM57.0339 92.808H29.487C27.7366 92.808 26.307 91.4045 26.271 89.664L26.8599 85.954C26.8991 85.846 26.9253 85.7315 26.9253 85.6105C26.9253 85.5974 26.922 85.5843 26.922 85.5712L29.8599 67.0637C29.8665 67.0114 29.873 66.9623 29.873 66.91C29.873 65.1368 31.3158 63.694 33.0923 63.694H62.6447C64.395 63.694 65.8214 65.0975 65.8606 66.838L62.275 89.4382C62.2684 89.4906 62.2619 89.5397 62.2619 89.592C62.2619 91.3652 60.8191 92.808 59.0459 92.808H57.0404H57.0339ZM65.6382 80.7325H103.386C103.608 81.5373 103.52 82.4141 103.105 83.1764C102.604 84.0957 101.767 84.6224 100.805 84.6224H65.0231L65.6415 80.7325H65.6382ZM80.9002 86.8896C80.9002 88.8461 79.3069 90.4393 77.3505 90.4393C75.3941 90.4393 73.8008 88.8461 73.8008 86.8896C73.8008 86.785 73.7812 86.6835 73.7485 86.5887H80.9526C80.9231 86.6835 80.9002 86.785 80.9002 86.8896ZM94.2353 86.8766C94.2353 88.833 92.6453 90.423 90.6889 90.423C88.7324 90.423 87.1424 88.833 87.1424 86.8766C87.1424 86.7751 87.1228 86.6803 87.0934 86.5887H94.2844C94.2549 86.6803 94.2353 86.7751 94.2353 86.8766Z" fill="#140A34"/>
<path d="M34.4663 42.4212C35.6572 42.4212 36.8808 41.8945 38.0062 40.8966C38.4119 40.5368 38.4479 39.9152 38.088 39.5095C37.7281 39.1038 37.1065 39.0678 36.7008 39.4277C36.1708 39.8988 35.3529 40.4582 34.4663 40.4582C33.3801 40.4582 32.4085 39.6992 32.0388 39.3753C31.6331 39.0155 31.0115 39.0547 30.6549 39.4604C30.295 39.8661 30.3343 40.4877 30.74 40.8443C31.4074 41.4332 32.7749 42.4212 34.4696 42.4212H34.4663Z" fill="#140A34"/>
<path d="M60.9959 36.2481C61.0449 36.2481 61.1006 36.2513 61.1529 36.2513H73.8827C73.9056 36.2513 73.9285 36.2513 73.9514 36.2513C74.0005 36.2513 74.0496 36.2513 74.1019 36.2513C76.3528 36.2513 78.1849 34.4192 78.1849 32.1684C78.1849 30.2054 76.7912 28.5598 74.9427 28.1738C75.0736 27.7419 75.139 27.2904 75.139 26.8389C75.139 24.2871 73.0648 22.2129 70.513 22.2129C68.9982 22.2129 67.5882 22.9621 66.731 24.1759C66.3057 24.0286 65.8542 23.9534 65.3995 23.9534C63.6655 23.9534 62.1704 25.0199 61.5815 26.5838C61.4408 26.5707 61.2969 26.5641 61.1562 26.5641C58.4866 26.5641 56.3142 28.7365 56.3142 31.4061C56.3142 34.0757 58.3851 36.1794 60.9991 36.2448L60.9959 36.2481ZM61.1529 28.1999C61.4277 28.1999 61.7025 28.2359 61.9675 28.3046C62.19 28.3635 62.4256 28.3242 62.6219 28.1967C62.8149 28.0723 62.9457 27.8695 62.9817 27.6405C63.1748 26.4496 64.189 25.5859 65.3962 25.5859C65.8346 25.5859 66.2664 25.7037 66.6427 25.9294C66.8422 26.0472 67.0811 26.0767 67.3003 26.008C67.5195 25.9392 67.7027 25.7822 67.8008 25.5728C68.2883 24.5259 69.3516 23.8487 70.5097 23.8487C72.1586 23.8487 73.5 25.1901 73.5 26.8389C73.5 27.3297 73.3854 27.7942 73.1564 28.2294C73.1106 28.3144 73.0616 28.3995 73.0092 28.478C72.8293 28.7463 72.826 29.0931 72.9961 29.3679C73.1662 29.6394 73.4836 29.7899 73.8009 29.7441C73.8369 29.7376 73.8729 29.7343 73.9089 29.7343C73.9253 29.7343 73.9383 29.7343 73.9547 29.7343C74.0005 29.731 74.0496 29.7278 74.0987 29.7278C75.4466 29.7278 76.5458 30.8238 76.5458 32.1749C76.5458 33.5261 75.4498 34.6221 74.0987 34.6221C74.0496 34.6221 74.0038 34.6221 73.9547 34.6155C73.8925 34.609 73.8304 34.6123 73.7682 34.6221H61.1529C61.1333 34.6221 61.1136 34.6221 61.0646 34.6221C59.3143 34.5763 57.9435 33.1695 57.9435 31.4159C57.9435 29.6623 59.383 28.2097 61.1496 28.2097L61.1529 28.1999Z" fill="#140A34"/>
<path d="M53.1603 76.9608C53.0295 76.5355 52.8495 76.1331 52.6303 75.7601C52.5518 75.6227 52.4635 75.4918 52.3719 75.3642L52.2835 75.2432C52.169 75.0894 52.0513 74.9455 51.9237 74.8048C51.6652 74.5234 51.3806 74.2683 51.073 74.0458C50.7655 73.8233 50.4351 73.6303 50.0883 73.47C49.8691 73.3686 49.6401 73.2835 49.4078 73.2115C49.2606 73.1657 49.1101 73.1265 48.9596 73.0938C48.5932 73.012 48.2137 72.9694 47.8243 72.9629C47.7949 72.9629 47.7654 72.9629 47.7393 72.9629C47.7131 72.9629 47.6804 72.9629 47.6542 72.9629C47.2649 72.9694 46.8854 73.012 46.519 73.0938C46.3685 73.1265 46.218 73.1657 46.0708 73.2115C45.8385 73.2835 45.6095 73.3686 45.3903 73.47C45.0402 73.6303 44.713 73.8233 44.4055 74.0458C44.098 74.2715 43.8133 74.5267 43.5549 74.8048C43.4273 74.9455 43.3062 75.0894 43.195 75.2399L43.1067 75.3642C43.0151 75.4918 42.93 75.626 42.8482 75.7601C42.629 76.1363 42.4491 76.5388 42.3182 76.9608C42.1645 77.4646 42.0761 77.9979 42.0696 78.5475C42.0696 78.577 42.0696 78.6031 42.0696 78.6326C42.0696 78.662 42.0696 78.6915 42.0696 78.7176C42.0761 79.0775 42.1121 79.4276 42.1808 79.7678C42.2168 79.951 42.2626 80.131 42.3182 80.3076C42.3804 80.5105 42.4556 80.7101 42.5407 80.9063C42.6323 81.1157 42.7337 81.3153 42.8482 81.5116C42.9267 81.649 43.0151 81.7799 43.1067 81.9075L43.195 82.0318L43.2016 82.0416C43.3128 82.1888 43.4306 82.3328 43.5549 82.4669L43.8657 82.0416L44.2354 81.5345L44.2419 81.5279L44.6934 80.9096L44.9388 80.5694C44.7719 80.324 44.6345 80.059 44.5331 79.7744C44.484 79.6402 44.4448 79.4996 44.4153 79.3589C44.3662 79.1266 44.3401 78.8845 44.3401 78.6391C44.3401 78.3938 44.3662 78.1517 44.4153 77.9194C44.5102 77.4777 44.6901 77.0688 44.9388 76.7089L44.9682 76.6696L45.0009 76.6238C45.2103 76.3392 45.459 76.0905 45.7436 75.8844C46.0511 75.6587 46.4012 75.4853 46.7774 75.3741C46.977 75.3152 47.1864 75.2726 47.4023 75.2497C47.5168 75.2399 47.6313 75.2334 47.7458 75.2334C47.8603 75.2334 47.9781 75.2399 48.0893 75.2497C48.3053 75.2726 48.5146 75.3119 48.7142 75.3741C49.0904 75.4853 49.4372 75.6587 49.748 75.8844C50.0327 76.0905 50.2846 76.3392 50.4907 76.6238L50.5234 76.6696L50.5529 76.7089C50.8015 77.0688 50.9814 77.4777 51.0763 77.9194C51.1254 78.1517 51.1516 78.3938 51.1516 78.6391C51.1516 78.8845 51.1254 79.1266 51.0763 79.3589C51.0469 79.4996 51.0076 79.6402 50.9585 79.7744C50.8571 80.059 50.7197 80.3273 50.5529 80.5694L50.7982 80.9096L51.2497 81.5279L51.2562 81.5345L51.6259 82.0416L51.9367 82.4669C52.0611 82.3295 52.1788 82.1888 52.2901 82.0416L52.2966 82.0318L52.385 81.9075C52.4766 81.7799 52.5616 81.6457 52.6434 81.5116C52.7579 81.3186 52.8593 81.1157 52.9509 80.9063C53.036 80.7133 53.1112 80.5138 53.1734 80.3076C53.229 80.131 53.2748 79.951 53.3108 79.7678C53.3795 79.4276 53.4188 79.0775 53.422 78.7176C53.422 78.6882 53.422 78.662 53.422 78.6326C53.422 78.6031 53.422 78.5737 53.422 78.5475C53.4155 77.9946 53.3272 77.4613 53.1734 76.9608H53.1603Z" fill="#FEBC22"/>
<path d="M49.0674 80.4716L48.5571 79.7715H46.9082L46.3978 80.4716L46.3291 80.5665L46.0837 80.9067H49.3815L49.1361 80.5665L49.0674 80.4716Z" fill="#140A34"/>
<path d="M50.4023 82.3093L50.206 82.041H45.2561L45.0631 82.3093L44.9257 82.499L44.4316 83.1763H51.0305L50.5397 82.499L50.4023 82.3093Z" fill="#140A34"/>
<path d="M86.017 43.8348C86.0595 43.8348 86.102 43.8381 86.1478 43.8381H95.0401C95.0564 43.8381 95.076 43.8381 95.0924 43.8381C95.1251 43.8381 95.1578 43.8381 95.1938 43.8381C96.9016 43.8381 98.292 42.4476 98.292 40.7399C98.292 39.3396 97.3596 38.152 96.0804 37.7725C96.136 37.5239 96.1622 37.272 96.1622 37.0168C96.1622 35.0996 94.6017 33.5391 92.6845 33.5391C91.6081 33.5391 90.6005 34.0429 89.9494 34.8706C89.6779 34.7954 89.3965 34.7561 89.1119 34.7561C87.8589 34.7561 86.7694 35.4889 86.2852 36.5817C86.2394 36.5817 86.1936 36.5817 86.1478 36.5817C84.1456 36.5817 82.5164 38.2109 82.5164 40.2131C82.5164 42.2154 84.0671 43.789 86.017 43.8413V43.8348ZM86.1478 38.2142C86.318 38.2142 86.4881 38.2371 86.6549 38.2796C86.8774 38.3385 87.1162 38.2992 87.3093 38.1717C87.5023 38.0473 87.6331 37.8445 87.6691 37.6155C87.7804 36.9154 88.402 36.3886 89.1119 36.3886C89.3736 36.3886 89.6321 36.4606 89.8578 36.5947C90.0574 36.7125 90.2962 36.742 90.5154 36.6733C90.7379 36.6046 90.9178 36.4475 91.016 36.2381C91.317 35.5936 91.9713 35.1749 92.6845 35.1749C93.6987 35.1749 94.5264 36.0026 94.5264 37.0168C94.5264 37.3178 94.4544 37.6057 94.3138 37.8739C94.2876 37.9263 94.2549 37.9754 94.2254 38.0244C94.0455 38.2927 94.0422 38.6395 94.2123 38.9143C94.3825 39.1859 94.6998 39.3331 95.0204 39.2905C95.0368 39.2905 95.0499 39.2873 95.0662 39.2873C95.0826 39.2873 95.099 39.2873 95.1153 39.2873C95.1415 39.2873 95.1644 39.2873 95.1906 39.2873C95.9954 39.2873 96.653 39.9416 96.653 40.7497C96.653 41.5578 95.9986 42.2121 95.1906 42.2121C95.1644 42.2121 95.1382 42.2121 95.112 42.2121C95.0891 42.2121 95.0662 42.2121 95.0401 42.2121C95.0073 42.2121 94.9746 42.2121 94.9419 42.2186H86.089C85.0028 42.1892 84.1489 41.3124 84.1489 40.223C84.1489 39.1335 85.042 38.2273 86.1446 38.2273L86.1478 38.2142Z" fill="#140A34"/>
</g>
<defs>
<clipPath id="clip0_6238_44213">
<rect width="106" height="106" fill="white"/>
</clipPath>
</defs>
</svg>
