<svg width="106" height="106" viewBox="0 0 106 106" fill="none" xmlns="http://www.w3.org/2000/svg">
<g clip-path="url(#clip0_6246_44520)">
<path d="M91.3531 13.9195L77.9232 15.9577C77.2525 16.0591 76.7388 16.5957 76.6407 17.2696C76.4084 18.8923 75.139 20.2435 73.4345 20.502C71.73 20.7604 70.1171 19.8476 69.4137 18.3656C69.1225 17.7505 68.4715 17.3907 67.8008 17.4954L12.8509 25.8249C12.0167 25.9525 11.4441 26.7311 11.5717 27.5621L17.5817 67.191C17.7093 68.0253 18.4879 68.5978 19.3189 68.4702L74.3931 60.1178C75.0213 60.0229 75.5185 59.5486 75.6559 58.927C75.9864 57.4286 77.2067 56.2181 78.813 55.9727C80.4194 55.7306 81.944 56.5256 82.703 57.8571C83.0171 58.41 83.6321 58.7143 84.2603 58.6194L97.8211 56.5616C98.6553 56.434 99.2279 55.6554 99.1003 54.8244L93.0903 15.1954C92.9627 14.3612 92.1841 13.7886 91.3531 13.9162V13.9195Z" fill="#FFCCA1"/>
<path d="M19.0899 69.4717C17.8729 69.4717 16.7998 68.5786 16.6101 67.3386L10.6001 27.7097C10.4987 27.0488 10.6623 26.3847 11.0614 25.8449C11.4606 25.3051 12.0429 24.9517 12.7038 24.8536L67.6504 16.5208C68.7562 16.354 69.8162 16.9265 70.2971 17.9407C70.8271 19.0596 72.0539 19.7139 73.2841 19.5274C74.5109 19.3409 75.4924 18.3562 75.6658 17.1293C75.8261 16.0137 76.6735 15.1533 77.7727 14.9864L91.2026 12.9482C92.5669 12.7421 93.8494 13.6843 94.0588 15.0519L100.069 54.6808C100.17 55.3417 100.007 56.0058 99.6074 56.5456C99.2115 57.0854 98.6259 57.4388 97.965 57.5369L84.4043 59.5948C83.3704 59.7518 82.366 59.2611 81.8459 58.345C81.2701 57.3341 80.1054 56.7681 78.957 56.9448C77.8054 57.1181 76.8632 58.0015 76.6113 59.14C76.3856 60.1673 75.5709 60.9328 74.5371 61.0899L19.4629 69.4423C19.3353 69.4619 19.211 69.4717 19.0867 69.4717H19.0899ZM68.0233 18.4576C67.9972 18.4576 67.971 18.4576 67.9448 18.4641L12.9982 26.7969C12.8543 26.8198 12.7267 26.8951 12.6416 27.0128C12.5565 27.1306 12.5206 27.2746 12.5402 27.4185L18.5501 67.0475C18.5959 67.3452 18.874 67.548 19.1717 67.5055L74.2459 59.1531C74.4684 59.1204 74.6451 58.9503 74.6974 58.7212C75.1194 56.7975 76.716 55.3024 78.6659 55.008C80.6157 54.7135 82.582 55.6656 83.5569 57.3766C83.6714 57.5794 83.8939 57.6907 84.1131 57.6547L97.6739 55.5969C97.8178 55.574 97.9454 55.4987 98.0305 55.3809C98.1155 55.2631 98.1515 55.1192 98.1319 54.9752L92.122 15.3463C92.0762 15.0486 91.7981 14.8425 91.5004 14.8883L78.0704 16.9265C77.8316 16.9625 77.6484 17.1555 77.6124 17.4074C77.3147 19.4849 75.656 21.1534 73.5818 21.4707C71.5076 21.7848 69.4268 20.6823 68.5272 18.788C68.4323 18.5852 68.236 18.4609 68.0266 18.4609L68.0233 18.4576Z" fill="#140A34"/>
<path d="M98.4426 26.1738H83.8611C83.1315 26.1738 82.5001 26.6613 82.2907 27.3582C81.7836 29.043 80.2198 30.2699 78.368 30.2699C76.5163 30.2699 74.9525 29.043 74.4454 27.3582C74.236 26.658 73.6046 26.1738 72.875 26.1738H13.2304C12.3241 26.1738 11.5913 26.9067 11.5913 27.8129V70.828C11.5913 71.7342 12.3241 72.467 13.2304 72.467H73.0124C73.6929 72.467 74.2982 72.0417 74.5435 71.407C75.1357 69.8694 76.6243 68.7799 78.368 68.7799C80.1118 68.7799 81.6004 69.8694 82.1925 71.407C82.4379 72.0417 83.0399 72.467 83.7237 72.467H98.4426C99.3488 72.467 100.082 71.7342 100.082 70.828V27.8129C100.082 26.9067 99.3488 26.1738 98.4426 26.1738Z" fill="#FF8014"/>
<path d="M98.4427 26.1738H83.8612C83.1316 26.1738 82.5002 26.6613 82.2908 27.3582C81.7837 29.043 80.2199 30.2699 78.3682 30.2699C77.9396 30.2699 77.5241 30.2012 77.1348 30.0769V68.9664C77.5241 68.8454 77.9363 68.7767 78.3682 68.7767C80.1119 68.7767 81.6005 69.8661 82.1927 71.4038C82.438 72.0385 83.04 72.4638 83.7238 72.4638H98.4427C99.349 72.4638 100.082 71.7309 100.082 70.8247V27.8129C100.082 26.9067 99.349 26.1738 98.4427 26.1738Z" fill="#FFCCA1"/>
<path d="M78.041 56.3871C77.4979 56.3871 77.0595 55.9487 77.0595 55.4056V51.2474C77.0595 50.7043 77.4979 50.2659 78.041 50.2659C78.5841 50.2659 79.0225 50.7043 79.0225 51.2474V55.4056C79.0225 55.9487 78.5841 56.3871 78.041 56.3871ZM78.041 48.8264C77.4979 48.8264 77.0595 48.388 77.0595 47.8449V43.6867C77.0595 43.1436 77.4979 42.7052 78.041 42.7052C78.5841 42.7052 79.0225 43.1436 79.0225 43.6867V47.8449C79.0225 48.388 78.5841 48.8264 78.041 48.8264ZM78.041 41.2657C77.4979 41.2657 77.0595 40.8273 77.0595 40.2842V36.126C77.0595 35.5829 77.4979 35.1445 78.041 35.1445C78.5841 35.1445 79.0225 35.5829 79.0225 36.126V40.2842C79.0225 40.8273 78.5841 41.2657 78.041 41.2657ZM77.9527 64.2356C77.4096 64.2356 76.9712 63.7972 76.9712 63.2542V59.096C76.9712 58.5529 77.4096 58.1145 77.9527 58.1145C78.4958 58.1145 78.9342 58.5529 78.9342 59.096V63.2542C78.9342 63.7972 78.4958 64.2356 77.9527 64.2356Z" fill="#140A34"/>
<path d="M44.7621 61.1211C44.7621 63.2051 43.0739 64.8933 40.9899 64.8933C38.9059 64.8933 37.2178 63.2051 37.2178 61.1211" fill="white"/>
<path d="M55.8593 61.1113C55.8593 63.1921 54.1712 64.8802 52.0904 64.8802C50.0097 64.8802 48.3215 63.1921 48.3215 61.1113" fill="white"/>
<path d="M40.99 65.8738C38.3694 65.8738 36.2363 63.7407 36.2363 61.1202C36.2363 60.5771 36.6747 60.1387 37.2178 60.1387C37.7609 60.1387 38.1993 60.5771 38.1993 61.1202C38.1993 62.6578 39.4523 63.9108 40.99 63.9108C42.5276 63.9108 43.7807 62.6578 43.7807 61.1202C43.7807 60.5771 44.219 60.1387 44.7621 60.1387C45.3052 60.1387 45.7436 60.5771 45.7436 61.1202C45.7436 63.7407 43.6105 65.8738 40.99 65.8738Z" fill="#140A33"/>
<path d="M52.0905 65.8608C49.4699 65.8608 47.3401 63.7309 47.3401 61.1104C47.3401 60.5673 47.7785 60.1289 48.3216 60.1289C48.8647 60.1289 49.3031 60.5673 49.3031 61.1104C49.3031 62.648 50.5528 63.8978 52.0905 63.8978C53.6281 63.8978 54.8779 62.648 54.8779 61.1104C54.8779 60.5673 55.3163 60.1289 55.8594 60.1289C56.4024 60.1289 56.8408 60.5673 56.8408 61.1104C56.8408 63.7309 54.711 65.8608 52.0905 65.8608Z" fill="#140A33"/>
<path d="M12.1965 36.1504H47.6804C51.8549 36.1504 55.7678 38.3587 58.1757 42.0687L66.6099 55.0734C68.0396 57.2784 66.5902 60.3243 64.1104 60.3243H12.2947" fill="white"/>
<path d="M12.2129 60.47H64.0286C66.2533 60.47 67.6437 58.0229 66.8749 55.9258H12.1965L12.2162 60.47H12.2129Z" fill="#FFCCA1"/>
<path d="M12.1965 43.0117H37.8525C38.7783 43.0117 39.6649 43.4043 40.2865 44.0913L42.701 47.3041C43.7839 48.5015 42.9333 49.8723 41.3204 49.8723H12.1965" fill="#FF8014"/>
<path d="M57.9302 42.6855H48.6094C47.4611 42.6855 46.8035 43.883 47.4807 44.7303L49.7185 47.5177C50.7785 48.8362 52.4372 49.641 54.2235 49.6999L63.1583 49.8831" fill="#FF8014"/>
<path d="M41.3171 50.8535H12.5237C11.9806 50.8535 11.5422 50.4151 11.5422 49.872C11.5422 49.3289 11.9806 48.8905 12.5237 48.8905H41.3171C41.7981 48.8905 42.1023 48.7007 42.1808 48.5273C42.2692 48.3245 42.0663 48.066 41.9714 47.9646C41.9518 47.9417 41.9322 47.9188 41.9158 47.8959L39.5308 44.7225C39.0957 44.2612 38.4872 43.9962 37.8525 43.9962H12.1966C11.6535 43.9962 11.2151 43.5578 11.2151 43.0147C11.2151 42.4716 11.6535 42.0332 12.1966 42.0332H37.8525C39.0532 42.0332 40.2081 42.5436 41.0129 43.4367C41.0325 43.4596 41.0521 43.4825 41.0685 43.5054L43.4568 46.6854C44.1602 47.4837 44.3532 48.4685 43.9704 49.3256C43.5516 50.2711 42.5342 50.8567 41.3139 50.8567L41.3171 50.8535Z" fill="#140A33"/>
<path d="M63.155 50.8643C63.155 50.8643 63.1419 50.8643 63.1354 50.8643L54.2006 50.681C52.1035 50.6123 50.1962 49.6832 48.9497 48.1325L46.7119 45.3451C46.1787 44.6776 46.0707 43.791 46.4371 43.032C46.8297 42.2141 47.6607 41.707 48.6029 41.707H57.9237C58.4668 41.707 58.9052 42.1454 58.9052 42.6885C58.9052 43.2316 58.4668 43.67 57.9237 43.67H48.6029C48.3837 43.67 48.2561 43.778 48.207 43.8826C48.1547 43.9873 48.1972 44.0626 48.243 44.1182L50.4808 46.9056C51.3674 48.0114 52.7415 48.6723 54.253 48.7214L63.1746 48.9046C63.7177 48.9144 64.1463 49.3626 64.1365 49.9057C64.1267 50.4422 63.6883 50.8675 63.155 50.8675V50.8643Z" fill="#140A33"/>
<path d="M64.1071 61.3068H12.2947C11.7516 61.3068 11.3132 60.8684 11.3132 60.3253C11.3132 59.7822 11.7516 59.3438 12.2947 59.3438H64.1071C64.8465 59.3438 65.491 58.9349 65.8771 58.2249C66.2304 57.5739 66.3907 56.5433 65.7855 55.6076L57.3513 42.603C55.1298 39.1776 51.5114 37.1329 47.6771 37.1329H12.1966C11.6535 37.1329 11.2151 36.6945 11.2151 36.1514C11.2151 35.6083 11.6535 35.1699 12.1966 35.1699H47.6804C52.1821 35.1699 56.4156 37.5484 59.0001 41.5365L67.4343 54.5411C68.334 55.9283 68.3995 57.7015 67.6045 59.1639C66.8749 60.5052 65.5695 61.31 64.1104 61.31L64.1071 61.3068Z" fill="#140A33"/>
<path d="M66.6851 56.4259H12.2947C11.7516 56.4259 11.3132 55.9875 11.3132 55.4444C11.3132 54.9013 11.7516 54.4629 12.2947 54.4629H66.6851C67.2282 54.4629 67.6666 54.9013 67.6666 55.4444C67.6666 55.9875 67.2282 56.4259 66.6851 56.4259Z" fill="#140A34"/>
<path d="M98.4426 73.4476H83.7237C82.631 73.4476 81.6724 72.7834 81.2765 71.7562C80.8185 70.562 79.6473 69.7572 78.3681 69.7572C77.0889 69.7572 75.9176 70.5588 75.4596 71.7562C75.0638 72.7834 74.1052 73.4476 73.0125 73.4476H13.2304C11.7844 73.4476 10.6099 72.2731 10.6099 70.827V27.812C10.6099 26.3659 11.7844 25.1914 13.2304 25.1914H72.8751C74.0365 25.1914 75.0474 25.9471 75.3876 27.0726C75.7802 28.3779 77.0071 29.2875 78.3713 29.2875C79.7356 29.2875 80.9625 28.3779 81.355 27.0726C81.6953 25.9471 82.703 25.1914 83.8676 25.1914H98.4459C99.892 25.1914 101.066 26.3659 101.066 27.812V70.827C101.066 72.2731 99.892 73.4476 98.4459 73.4476H98.4426ZM78.3681 67.7975C80.4554 67.7975 82.3594 69.1062 83.1086 71.0528C83.2101 71.3145 83.4489 71.4846 83.7237 71.4846H98.4426C98.8058 71.4846 99.1002 71.1902 99.1002 70.827V27.812C99.1002 27.4488 98.8058 27.1544 98.4426 27.1544H83.8644C83.5732 27.1544 83.3213 27.3507 83.233 27.6418C82.5917 29.7684 80.5928 31.2537 78.3713 31.2537C76.1499 31.2537 74.151 29.7684 73.5097 27.6418C73.4214 27.3507 73.1695 27.1544 72.8783 27.1544H13.2304C12.8673 27.1544 12.5728 27.4488 12.5728 27.812V70.827C12.5728 71.1902 12.8673 71.4846 13.2304 71.4846H73.0125C73.284 71.4846 73.5261 71.3145 73.6275 71.0528C74.3767 69.1062 76.2808 67.7975 78.3681 67.7975Z" fill="#140A33"/>
<path d="M95.0631 41.8463C95.0631 41.8757 95.0631 41.9052 95.0631 41.9314C95.0566 42.2912 95.0206 42.6446 94.9486 42.9881C94.9126 43.1713 94.8668 43.3512 94.8112 43.5312C94.749 43.7373 94.6738 43.9369 94.5887 44.1332C94.4971 44.3425 94.3924 44.5454 94.2779 44.7417C94.1961 44.8791 94.1111 45.0132 94.0195 45.1408L93.9279 45.2651L93.9213 45.2749C93.8101 45.4254 93.6923 45.5661 93.5647 45.7035L93.2539 45.2749L92.881 44.7646L92.8744 44.758L92.4229 44.1364L92.1743 43.7962C92.3444 43.5508 92.4818 43.2825 92.5832 42.9946C92.6323 42.8605 92.6716 42.7198 92.701 42.5759C92.7501 42.3436 92.7763 42.1015 92.7763 41.8528C92.7763 41.6042 92.7501 41.3621 92.701 41.1298C92.6061 40.6849 92.4229 40.2727 92.1743 39.9128L92.1448 39.8703L92.1121 39.8245C91.9027 39.5398 91.6508 39.2879 91.3662 39.0818C91.0554 38.8561 90.7053 38.6794 90.3258 38.5682C90.123 38.5093 89.9136 38.4667 89.6977 38.4438C89.5832 38.434 89.4687 38.4275 89.3509 38.4275C89.2331 38.4275 89.1186 38.434 89.0041 38.4438C88.7882 38.4667 88.5788 38.506 88.376 38.5682C87.9997 38.6794 87.6464 38.8561 87.3356 39.0818C87.051 39.2912 86.7958 39.5398 86.5897 39.8245L86.5569 39.8703L86.5275 39.9095C86.2789 40.2727 86.0956 40.6849 86.0008 41.1298C85.9517 41.3621 85.9255 41.6042 85.9255 41.8528C85.9255 42.1015 85.9517 42.3436 86.0008 42.5759C86.0302 42.7198 86.0728 42.8572 86.1186 42.9946C86.22 43.2793 86.3574 43.5508 86.5275 43.7962L86.2789 44.1397L85.8274 44.7613L85.8208 44.7678L85.4479 45.2782L85.1371 45.7068C85.0128 45.5694 84.8917 45.4254 84.7805 45.2782L84.7739 45.2684L84.6823 45.1441C84.5907 45.0132 84.5056 44.8824 84.4239 44.7449C84.3093 44.5487 84.2047 44.3458 84.1131 44.1364C84.028 43.9401 83.9528 43.7406 83.8906 43.5345C83.835 43.3578 83.7892 43.1778 83.7532 42.9914C83.6845 42.6511 83.6452 42.2978 83.6387 41.9346C83.6387 41.9052 83.6387 41.8757 83.6387 41.8496C83.6387 41.8234 83.6387 41.7907 83.6387 41.7645C83.6485 41.2083 83.7336 40.6718 83.8906 40.168C84.0215 39.7427 84.2014 39.337 84.4239 38.9575C84.5056 38.8201 84.5907 38.6859 84.6823 38.5583L84.7706 38.434C84.8852 38.2803 85.0062 38.133 85.1338 37.9956C85.3923 37.7143 85.6802 37.4558 85.991 37.2301C86.2985 37.0043 86.6322 36.8113 86.9823 36.651C87.2047 36.5496 87.4305 36.4645 87.666 36.3893C87.8132 36.3435 87.9637 36.3042 88.1175 36.2715C88.4872 36.1897 88.8667 36.1439 89.2593 36.1406C89.2887 36.1406 89.3182 36.1406 89.3476 36.1406C89.3771 36.1406 89.4065 36.1406 89.436 36.1406C89.8285 36.1472 90.2113 36.193 90.5777 36.2715C90.7315 36.3042 90.882 36.3435 91.0292 36.3893C91.2648 36.4612 91.4938 36.5496 91.713 36.651C92.0631 36.8113 92.3968 37.0043 92.7043 37.2301C93.0151 37.4558 93.303 37.711 93.5615 37.9956C93.689 38.1363 93.8101 38.2803 93.9246 38.434L94.0129 38.5583C94.1045 38.6892 94.1896 38.8201 94.2714 38.9575C94.4939 39.3337 94.6738 39.7394 94.8047 40.168C94.9617 40.6751 95.0468 41.2116 95.0566 41.7645C95.0566 41.794 95.0566 41.8234 95.0566 41.8496L95.0631 41.8463Z" fill="#170F33"/>
<path d="M91.0095 44.134H87.6921L87.9408 43.7937L88.0095 43.6956L88.5199 42.9922H90.1818L90.6955 43.6956L90.7642 43.7937L91.0095 44.134Z" fill="#170F33"/>
<path d="M92.6716 46.4172H86.0303L86.5276 45.7334L86.665 45.5437L86.8613 45.2754H91.8406L92.0369 45.5437L92.1743 45.7334L92.6716 46.4172Z" fill="#170F33"/>
<path d="M95.5864 62.2579H83.115C82.5719 62.2579 82.1335 61.8195 82.1335 61.2764C82.1335 60.7333 82.5719 60.2949 83.115 60.2949H95.5864C96.1295 60.2949 96.5679 60.7333 96.5679 61.2764C96.5679 61.8195 96.1295 62.2579 95.5864 62.2579Z" fill="#170F33"/>
<path d="M94.2158 58.0704H84.4893C83.9462 58.0704 83.5078 57.632 83.5078 57.0889C83.5078 56.5458 83.9462 56.1074 84.4893 56.1074H94.2158C94.7589 56.1074 95.1973 56.5458 95.1973 57.0889C95.1973 57.632 94.7589 58.0704 94.2158 58.0704Z" fill="#170F33"/>
<path d="M5.55198 93.9962C3.91618 79.0515 6.97513 69.0437 10.623 62.4089C10.8291 62.0326 11.3983 62.1798 11.3983 62.6084V67.4308C11.3983 68.4122 11.3853 69.397 11.3983 70.3785C11.454 74.1506 16.5609 69.0698 17.4083 68.2225C20.9743 64.6564 24.5666 61.0773 28.3518 57.7435C30.1479 56.1634 35.8994 51.7598 37.3454 55.9474C38.9387 60.5702 34.1982 63.7208 31.3977 66.7895C29.4969 68.8703 28.2864 71.6871 28.8818 74.504C29.896 79.2936 28.1457 88.4148 23.2383 94.3037" fill="white"/>
<path d="M23.2382 95.285C23.0157 95.285 22.7933 95.2098 22.6101 95.056C22.1946 94.7092 22.1389 94.0909 22.4857 93.6721C26.9973 88.2609 28.9406 79.4962 27.9231 74.7066C27.3146 71.8374 28.319 68.7098 30.6746 66.1252C31.2307 65.5167 31.836 64.9245 32.4805 64.3029C35.0651 61.7903 37.5057 59.4151 36.4195 56.2678C36.148 55.4794 35.7554 55.2929 35.4805 55.2209C34.0116 54.8316 31.0933 56.6375 29.0028 58.4794C25.3876 61.6627 22.0702 64.9507 18.1051 68.9159C13.6131 73.4111 12.1671 72.8254 11.6207 72.603C11.0842 72.387 10.443 71.8243 10.4201 70.3914C10.4102 69.7305 10.4135 69.0696 10.4201 68.4088C10.4201 68.0816 10.4201 67.7577 10.4201 67.4306V64.9638C6.61518 72.989 5.30653 82.7057 6.53011 93.8848C6.589 94.4246 6.19968 94.9088 5.65987 94.9677C5.12005 95.0233 4.63585 94.6372 4.57697 94.0974C3.19962 81.5214 4.94339 70.6989 9.76246 61.931C10.0733 61.365 10.7047 61.0902 11.3296 61.2505C11.9577 61.4108 12.3797 61.9539 12.3797 62.6017V67.424C12.3797 67.7512 12.3797 68.0816 12.3797 68.412C12.3797 69.0598 12.3732 69.7076 12.3797 70.3586C12.3797 70.5615 12.4026 70.6891 12.4223 70.7643C12.8574 70.6924 14.1955 70.0413 16.7113 67.5254C20.7027 63.5341 24.043 60.2232 27.7007 57.004C28.9046 55.944 33.053 52.548 35.9778 53.3201C36.7303 53.5197 37.738 54.0791 38.268 55.6233C39.7598 59.9517 36.4784 63.1415 33.8415 65.7064C33.2199 66.3084 32.6342 66.8809 32.1173 67.4469C30.1936 69.5571 29.3626 72.0533 29.837 74.2977C30.9428 79.5159 29.0191 88.8857 23.9874 94.9284C23.7944 95.1607 23.513 95.2817 23.2317 95.2817L23.2382 95.285Z" fill="#140A34"/>
</g>
<defs>
<clipPath id="clip0_6246_44520">
<rect width="106" height="106" fill="white"/>
</clipPath>
</defs>
</svg>
