<svg width="106" height="106" viewBox="0 0 106 106" fill="none" xmlns="http://www.w3.org/2000/svg">
<g clip-path="url(#clip0_6238_44341)">
<path d="M97.6378 10.9297H38.232C33.8677 10.9297 30.3147 14.4794 30.3147 18.8437V43.6719L22.9242 43.6032L13.7996 25.9071C12.7429 23.8591 10.1813 23.0248 8.08743 24.0456L2.7678 26.6465C0.929154 27.5429 1.80304e-05 29.6007 0.556191 31.5408L8.24119 58.3483C8.82681 60.3964 9.12452 62.5131 9.12452 64.6429V71.088C9.12452 73.9604 11.5063 76.2931 14.4311 76.2931H15.8869L13.7244 86.5725H10.1682C7.8715 86.5725 6.00014 88.4406 6.00014 90.7405V90.9073C6.00014 93.2073 7.8715 95.0786 10.1682 95.0786H50.9029C53.2029 95.0786 55.0742 93.2073 55.0742 90.9073V90.7405C55.0742 88.4406 53.2029 86.5725 50.9029 86.5725H47.4121C47.4154 86.4743 47.4088 86.3762 47.3827 86.278L44.6574 76.2931H47.507C49.8887 76.2931 51.9924 74.7194 52.6238 72.4653L54.5573 65.5328C54.9237 64.2176 54.6587 62.8402 53.831 61.7475C52.9804 60.6254 51.6717 59.9809 50.2486 59.9809H43.9148L44.3401 58.6853H97.6378C102.005 58.6853 105.555 55.1356 105.555 50.7713V18.8437C105.555 14.4794 102.005 10.9297 97.6378 10.9297ZM35.9484 51.033C36.5177 51.033 37.0411 51.298 37.3814 51.7593C37.7216 52.2239 37.8198 52.8062 37.6464 53.3559L36.6943 56.4148C33.9887 56.1858 32.366 54.2163 32.2809 51.033H35.9484ZM30.3245 51.033C30.4194 55.0865 32.631 57.8249 36.1054 58.3091L35.582 59.9841C35.582 59.9841 35.5591 59.9809 35.546 59.9809C32.9843 59.9809 30.6811 58.597 29.523 56.3592L26.6832 51.033H30.3245ZM45.4263 86.5725H15.7299L17.8924 76.2931H42.6225L45.4263 86.5725Z" fill="white"/>
<path d="M82.6047 61.0898H67.7385C64.8006 61.0898 62.4124 63.4781 62.4124 66.416V69.9232C62.4124 70.4663 62.8507 70.9047 63.3938 70.9047H74.1901V93.1156H67.3198C66.7767 93.1156 66.3383 93.554 66.3383 94.0971C66.3383 94.6402 66.7767 95.0785 67.3198 95.0785H83.0235C83.5665 95.0785 84.0049 94.6402 84.0049 94.0971C84.0049 93.554 83.5665 93.1156 83.0235 93.1156H76.1531V70.9047H86.9494C87.4925 70.9047 87.9309 70.4663 87.9309 69.9232V66.416C87.9309 63.4781 85.5426 61.0898 82.6047 61.0898Z" fill="white"/>
<path d="M103.602 19.4764H104.148C104.691 19.4764 105.13 19.9148 105.13 20.4579C105.13 21.001 104.691 21.4394 104.148 21.4394H103.602V50.7726C103.602 54.0606 100.929 56.7335 97.6411 56.7335H97.3237C97.4709 56.8872 97.6149 57.0443 97.7588 57.2046C98.0598 57.5416 98.0271 58.0585 97.6901 58.3595C97.5331 58.4969 97.3401 58.5656 97.147 58.5656C96.9213 58.5656 96.6956 58.474 96.5352 58.2908C96.0314 57.7248 95.5047 57.2079 94.9616 56.7335H63.7472C61.7646 57.6135 60.5541 58.2842 60.4985 58.3137C60.1059 58.5361 59.6054 58.3954 59.3829 58.0029C59.1604 57.6103 59.3011 57.1097 59.6937 56.8905C59.7199 56.8742 59.8213 56.8185 59.9783 56.7335H44.9846L44.3401 58.6899H97.6378C102.002 58.6899 105.555 55.1402 105.555 50.7726V18.845C105.555 14.4807 102.002 10.9277 97.6378 10.9277H38.232C33.8677 10.9277 30.3147 14.4774 30.3147 18.845V43.6732L32.2711 43.6929V21.4394H31.4336C30.8905 21.4394 30.4521 21.001 30.4521 20.4579C30.4521 19.9148 30.8905 19.4764 31.4336 19.4764H32.2711" fill="#A6E1CA"/>
<path d="M59.1048 20.5012C59.1048 19.9581 59.5432 19.5197 60.0862 19.5197H75.79C76.333 19.5197 76.7714 19.9581 76.7714 20.5012V21.4434H104.148C104.691 21.4434 105.13 21.005 105.13 20.462C105.13 19.9189 104.691 19.4805 104.148 19.4805H31.4368C30.8937 19.4805 30.4553 19.9189 30.4553 20.462C30.4553 21.005 30.8937 21.4434 31.4368 21.4434H59.1048V20.5012Z" fill="#20B37B"/>
<path d="M51.6652 39.4227C51.7045 39.4227 51.747 39.4227 51.7895 39.4227H60.0143C60.0307 39.4227 60.0471 39.4227 60.0634 39.4227C60.0929 39.4227 60.1256 39.4227 60.155 39.4227C61.7679 39.4227 63.0831 38.1108 63.0831 36.4946C63.0831 35.1925 62.226 34.0835 61.0482 33.7072C61.0907 33.4913 61.1136 33.2721 61.1136 33.0496C61.1136 31.2404 59.6414 29.7715 57.8355 29.7715C56.8343 29.7715 55.8954 30.2361 55.2836 30.9951C55.0382 30.9296 54.7863 30.8969 54.5311 30.8969C53.3632 30.8969 52.3457 31.5741 51.8746 32.5851C51.8451 32.5851 51.8157 32.5851 51.7863 32.5851C49.9018 32.5851 48.3674 34.1194 48.3674 36.0039C48.3674 37.8883 49.8298 39.3736 51.6652 39.4194V39.4227ZM51.7895 34.2241C51.9433 34.2241 52.0938 34.2438 52.241 34.283C52.4635 34.3419 52.7023 34.3027 52.8953 34.1751C53.0884 34.0507 53.2192 33.8479 53.2552 33.6189C53.3534 33.0006 53.903 32.536 54.5311 32.536C54.7634 32.536 54.9892 32.5982 55.1887 32.7159C55.3883 32.8337 55.6271 32.8632 55.8463 32.7944C56.0655 32.7257 56.2487 32.5687 56.3469 32.3593C56.6151 31.7835 57.1975 31.4106 57.8355 31.4106C58.7417 31.4106 59.4778 32.1467 59.4778 33.0529C59.4778 33.3212 59.4156 33.5764 59.288 33.8185C59.2651 33.8643 59.2357 33.9101 59.2095 33.9526C59.0296 34.2209 59.0263 34.5677 59.1964 34.8392C59.3666 35.114 59.6839 35.2612 60.0013 35.2154C60.0143 35.2154 60.0307 35.2122 60.0438 35.2122C60.0601 35.2122 60.0765 35.2122 60.0929 35.2122C60.1158 35.2122 60.1354 35.2122 60.1583 35.2122C60.8715 35.2122 61.4506 35.7912 61.4506 36.5044C61.4506 37.2177 60.8715 37.7967 60.1583 37.7967C60.1354 37.7967 60.1125 37.7967 60.0896 37.7967C60.0667 37.7967 60.0405 37.7967 60.0176 37.7967C59.9849 37.7967 59.9555 37.7967 59.9227 37.8033H51.7405C50.7688 37.7771 50.0065 36.9952 50.0065 36.0202C50.0065 35.0453 50.8081 34.2372 51.7895 34.2372V34.2241Z" fill="#20B37B"/>
<path d="M91.5689 31.8992C91.6049 31.8992 91.6409 31.8992 91.6769 31.8992H98.2888C98.2888 31.8992 98.3149 31.8992 98.3313 31.8992C98.3542 31.8992 98.3804 31.8992 98.4033 31.8992C99.7904 31.8992 100.916 30.7705 100.916 29.3866C100.916 28.3168 100.245 27.4008 99.2997 27.0376C99.3226 26.8969 99.3324 26.7563 99.3324 26.6156C99.3324 25.0747 98.0794 23.8184 96.5352 23.8184C95.7173 23.8184 94.9485 24.1815 94.425 24.7835C94.2451 24.7442 94.0651 24.7246 93.8787 24.7246C92.9103 24.7246 92.0629 25.2644 91.6441 26.0823C90.0541 26.0987 88.7651 27.3975 88.7651 28.9908C88.7651 30.584 90.0083 31.8567 91.5689 31.896V31.8992ZM91.6769 27.7181C91.7848 27.7181 91.8961 27.7312 92.0007 27.7606C92.2232 27.8195 92.462 27.7803 92.6551 27.6527C92.8481 27.5284 92.979 27.3255 93.0149 27.0965C93.0837 26.6777 93.4566 26.3604 93.8819 26.3604C94.0422 26.3604 94.1927 26.4029 94.3301 26.4847C94.5297 26.6025 94.7685 26.6319 94.9877 26.5632C95.2069 26.4945 95.3901 26.3375 95.4883 26.1281C95.678 25.7224 96.0903 25.4574 96.5385 25.4574C97.1797 25.4574 97.6999 25.9776 97.6999 26.6189C97.6999 26.8086 97.6541 26.9885 97.5658 27.1587C97.5494 27.1914 97.5298 27.2241 97.5101 27.2535C97.3335 27.5218 97.3367 27.8686 97.5069 28.1401C97.677 28.4117 98.0009 28.5589 98.3182 28.5164C98.3346 28.5164 98.3509 28.5164 98.3673 28.5164C98.3804 28.5164 98.3902 28.5164 98.4033 28.5164C98.8875 28.5164 99.2801 28.909 99.2801 29.3932C99.2801 29.8774 98.8875 30.27 98.4033 30.27C98.3902 30.27 98.3771 30.27 98.364 30.27C98.3411 30.27 98.3149 30.27 98.292 30.27C98.2626 30.27 98.2364 30.27 98.207 30.2732H91.6409C90.9473 30.2536 90.4009 29.6942 90.4009 29.0006C90.4009 28.307 90.9735 27.7279 91.6736 27.7279L91.6769 27.7181Z" fill="#20B37B"/>
<path d="M75.7899 19.5195H60.0862C59.5431 19.5195 59.1047 19.9579 59.1047 20.501V22.0485C59.1047 24.0147 60.6129 25.6145 62.4679 25.6145H73.4082C75.2632 25.6145 76.7714 24.0147 76.7714 22.0485V20.501C76.7714 19.9579 76.333 19.5195 75.7899 19.5195ZM74.8084 22.0485C74.8084 22.9318 74.1803 23.6516 73.4082 23.6516H62.4679C61.6958 23.6516 61.0677 22.9318 61.0677 22.0485V21.4825H74.8084V22.0485Z" fill="#20B37B"/>
<path d="M79.5164 50.7595C80.6189 50.6809 81.6887 50.6548 82.7291 50.6875C82.6669 50.6122 82.595 50.5468 82.5066 50.4945C80.1642 49.1466 77.825 48.116 75.5021 47.3439V47.6874C75.5021 48.1389 75.1357 48.5053 74.6842 48.5053C74.2327 48.5053 73.8663 48.1389 73.8663 47.6874V46.8401C63.2598 43.84 53.2225 46.1334 45.9333 49.1073C46.1067 49.6373 46.2213 50.1837 46.2736 50.7366C54.698 47.2458 67.0352 44.6219 79.5164 50.7627V50.7595Z" fill="#20B37B"/>
<path d="M89.6746 51.8789V52.6085C89.6746 52.9913 89.4096 53.3119 89.053 53.4002C91.1632 54.0971 93.1621 55.1701 94.9582 56.734C95.5013 57.2083 96.028 57.7253 96.5319 58.2912C96.6922 58.4745 96.9179 58.5661 97.1437 58.5661C97.3367 58.5661 97.5297 58.4974 97.6867 58.36C98.0237 58.059 98.0564 57.5421 97.7554 57.2051C97.6115 57.0448 97.4675 56.8877 97.3203 56.734C95.2036 54.5027 92.6354 52.88 89.6746 51.8789Z" fill="#20B37B"/>
<path d="M88.2515 53.1544C88.1206 53.0104 88.0389 52.8207 88.0389 52.608V51.4008C86.3769 50.9853 84.6037 50.7465 82.7258 50.6876C81.6854 50.6549 80.6156 50.6811 79.513 50.7596C77.6809 50.8937 75.7671 51.1783 73.7779 51.62C66.8748 53.1544 61.2837 56.0269 59.975 56.7303C59.818 56.8153 59.7166 56.8709 59.6904 56.8873C59.2978 57.1098 59.1571 57.607 59.3796 57.9996C59.6021 58.3922 60.0993 58.5329 60.4952 58.3104C60.5476 58.281 61.7613 57.6103 63.7439 56.7303C68.9359 54.4205 79.4214 50.6614 88.2515 53.1511V53.1544Z" fill="#20B37B"/>
<path d="M89.6746 47.7663V49.4152C91.281 49.2254 92.2101 48.4893 92.7205 47.8579C93.715 46.6343 94.0095 44.763 93.5515 42.5972C93.2112 40.981 92.1708 36.0703 88.8534 36.0703C86.0464 36.0703 84.9046 39.3615 84.1587 42.5841C83.6941 44.5961 84.0115 46.4838 85.0289 47.7663C85.7585 48.6824 86.789 49.2385 88.0355 49.4054V47.7532" fill="#20B37B"/>
<path d="M88.2515 53.1534C88.402 53.3202 88.6146 53.4249 88.8567 53.4249C88.9254 53.4249 88.9909 53.4151 89.053 53.3988C89.4096 53.3104 89.6746 52.9898 89.6746 52.607V45.4488C89.6746 44.9973 89.3082 44.6309 88.8567 44.6309C88.4052 44.6309 88.0388 44.9973 88.0388 45.4488V52.607C88.0388 52.8164 88.1206 53.0062 88.2515 53.1534Z" fill="#20B37B"/>
<path d="M78.5478 42.938C78.0342 43.5694 77.1051 44.3055 75.4987 44.4953L73.8629 42.83V44.4855C72.6164 44.3153 71.5859 43.7624 70.8563 42.8431C69.8388 41.5639 69.5182 39.6729 69.986 37.6642C70.7287 34.4416 71.8705 31.1504 74.6775 31.1504C77.9949 31.1504 79.0353 36.0643 79.3755 37.6772C79.8336 39.8463 79.5391 41.7144 78.5478 42.938Z" fill="#20B37B"/>
<path d="M74.6809 48.505C75.1324 48.505 75.4988 48.1386 75.4988 47.6871V40.5288C75.4988 40.0774 75.1324 39.7109 74.6809 39.7109C74.2295 39.7109 73.863 40.0774 73.863 40.5288V47.6871C73.863 48.1386 74.2295 48.505 74.6809 48.505Z" fill="#20B37B"/>
<path d="M85.9679 68.9436H75.1716C75.7147 68.9436 76.1531 69.382 76.1531 69.9251V70.9066H86.9494C87.4925 70.9066 87.9309 70.4682 87.9309 69.9251V66.418C87.9309 63.4801 85.5426 61.0918 82.6047 61.0918H67.7385C64.8006 61.0918 62.4124 63.4801 62.4124 66.418V69.9251C62.4124 70.4682 62.8507 70.9066 63.3938 70.9066H74.1901V69.9251C74.1901 69.382 74.6285 68.9436 75.1716 68.9436H64.3753" fill="#A6E1CA"/>
<path d="M75.1717 68.9434C74.6286 68.9434 74.1902 69.3818 74.1902 69.9248V93.1172H76.1531V69.9248C76.1531 69.3818 75.7148 68.9434 75.1717 68.9434Z" fill="#20B37B"/>
<path d="M67.3199 93.1172C66.7768 93.1172 66.3384 93.5556 66.3384 94.0987C66.3384 94.6418 66.7768 95.0802 67.3199 95.0802H83.0236C83.5667 95.0802 84.005 94.6418 84.005 94.0987C84.005 93.5556 83.5667 93.1172 83.0236 93.1172H67.3199Z" fill="#20B37B"/>
<path d="M40.4926 70.3991C39.9757 71.9793 38.5264 72.9804 36.9528 72.9804C36.5994 72.9804 36.2396 72.9313 35.883 72.8234L35.5951 72.7383C34.6234 72.4537 33.8284 71.8059 33.3507 70.9127C32.8731 70.0196 32.7749 68.9923 33.0759 68.0239L34.9571 61.9878H10.3514C9.80827 61.9878 9.36987 61.5494 9.36987 61.0063C9.36987 60.4632 9.80827 60.0248 10.3514 60.0248H32.6114L31.0181 59.7075L25.4564 51.5285L25.7868 51.0345H15.9458L17.6274 49.0748H15.3733C14.3918 49.0748 13.5935 48.2732 13.5935 47.2852C13.5935 46.8043 13.7833 46.3495 14.1235 46.0126C14.4605 45.6788 14.9022 45.4956 15.3733 45.4956H15.3896L20.6536 45.5447L21.308 44.7824C21.5599 45.2699 22.1553 45.4597 22.6395 45.211C23.127 44.9591 23.3167 44.3637 23.0681 43.8795L22.9274 43.6047L13.8029 25.9085C12.7462 23.8605 10.1845 23.0263 8.09067 24.047L2.77104 26.6479C0.92913 27.5443 -6.04987e-06 29.6022 0.556167 31.5422L8.24117 58.3498C8.82678 60.3978 9.1245 62.5145 9.1245 64.6443V71.0894C9.1245 73.9619 11.5062 76.2945 14.431 76.2945H15.8869L16.1061 75.2574C16.2173 74.7274 16.7375 74.3872 17.2675 74.4984C17.7975 74.6097 18.1378 75.1298 18.0265 75.6598L17.8924 76.2945H42.6225L42.5407 76.0001C42.3967 75.4766 42.7075 74.9368 43.231 74.7961C43.7512 74.6522 44.2943 74.963 44.4349 75.4864L44.6574 76.2978H47.507C49.8887 76.2978 51.9923 74.7242 52.6238 72.47L54.5573 65.5375C54.9237 64.2223 54.6587 62.845 53.831 61.7522C52.9804 60.6301 51.6717 59.9856 50.2486 59.9856H43.9147L43.267 61.9649L40.4926 70.4024V70.3991Z" fill="#20B37B"/>
<path d="M46.6922 87.4831C46.6072 87.506 46.5188 87.5191 46.4338 87.5191C46.0019 87.5191 45.606 87.2312 45.4883 86.7961L45.4261 86.5736H15.7298L15.5694 87.3293C15.4713 87.7906 15.0656 88.108 14.6109 88.108C14.5454 88.108 14.4767 88.1014 14.408 88.0851C13.878 87.9738 13.5378 87.4537 13.649 86.9237L13.7243 86.5703H10.1713C7.87136 86.5703 6 88.4417 6 90.7416V90.9085C6 93.2084 7.87136 95.0798 10.1713 95.0798H50.9061C53.206 95.0798 55.0774 93.2084 55.0774 90.9085V90.7416C55.0774 88.4417 53.206 86.5703 50.9061 86.5703H47.4152C47.3989 86.9891 47.1208 87.3653 46.6955 87.4831H46.6922Z" fill="#A6E1CA"/>
<path d="M14.4083 88.0885C14.477 88.1016 14.5457 88.1114 14.6111 88.1114C15.0659 88.1114 15.4748 87.7941 15.5697 87.3328L15.73 86.577L17.8925 76.2977L18.0267 75.663C18.1379 75.133 17.7976 74.6128 17.2676 74.5015C16.7376 74.3903 16.2175 74.7306 16.1062 75.2606L15.887 76.2977L13.7245 86.577L13.6492 86.9304C13.538 87.4604 13.8783 87.9806 14.4083 88.0918V88.0885Z" fill="#20B37B"/>
<path d="M43.2341 74.7926C42.7107 74.9365 42.4032 75.4731 42.5438 75.9965L42.6256 76.291L45.4294 86.5703L45.4916 86.7928C45.6093 87.2279 46.0052 87.5158 46.4371 87.5158C46.5221 87.5158 46.6104 87.506 46.6955 87.4799C47.1208 87.3654 47.3989 86.9858 47.4153 86.5671C47.4185 86.4689 47.4153 86.3708 47.3858 86.2726L44.6638 76.2877L44.4414 75.4763C44.2974 74.9529 43.7576 74.6453 43.2374 74.786L43.2341 74.7926Z" fill="#20B37B"/>
<path d="M45.9137 53.9045C46.2572 52.8576 46.3717 51.7845 46.2736 50.7343C46.2212 50.1814 46.1067 49.635 45.9333 49.105C45.6879 48.3558 45.3281 47.6361 44.8537 46.972C43.4044 44.9501 41.147 43.7756 38.6605 43.7527L32.2744 43.6938L30.3179 43.6742L22.9274 43.6055L23.0681 43.8803C23.3167 44.3645 23.127 44.9599 22.6395 45.2118C22.1553 45.4605 21.5599 45.2707 21.3079 44.7832L20.6536 45.5455L15.3896 45.4965H15.3733C14.9021 45.4965 14.4572 45.6797 14.1235 46.0134C13.7833 46.3536 13.5935 46.8051 13.5935 47.286C13.5935 48.274 14.3918 49.0756 15.3733 49.0756H17.6274L15.9458 51.0353H25.7868L26.1107 50.5478H31.0181L36.5798 50.2207C36.5798 50.2207 38.5428 51.5293 38.5428 51.8565C38.5428 52.1836 37.5613 56.1095 37.5613 56.1095L36.1479 60.0649C36.5667 60.1761 36.8775 60.5557 36.8775 61.0104C36.8775 61.5535 36.4391 61.9919 35.896 61.9919H34.9538L33.0726 68.028C32.7717 68.9964 32.8698 70.0237 33.3475 70.9168C33.8251 71.81 34.6201 72.4578 35.5918 72.7424L35.8797 72.8274C36.2363 72.9354 36.5962 72.9845 36.9495 72.9845C38.5231 72.9845 39.9725 71.9834 40.4894 70.4032L43.2637 61.9657L43.9115 59.9864L44.3368 58.6908L44.9813 56.7344L45.9104 53.9045H45.9137Z" fill="#A6E1CA"/>
<path d="M35.9255 60.6895L32.6114 60.0254H10.3514C9.80827 60.0254 9.36987 60.4638 9.36987 61.0069C9.36987 61.55 9.80827 61.9884 10.3514 61.9884H35.8993C36.4424 61.9884 36.8808 61.55 36.8808 61.0069C36.8808 60.5521 36.57 60.1726 36.1512 60.0614L35.9288 60.6863L35.9255 60.6895Z" fill="#20B37B"/>
<path d="M37.2341 58.394C33.0301 58.394 30.3147 55.4005 30.3147 50.7712C30.3147 50.2314 30.7531 49.793 31.2929 49.793C31.8327 49.793 32.2711 50.2314 32.2711 50.7712C32.2711 54.3209 34.1261 56.4376 37.2341 56.4376C37.774 56.4376 38.2124 56.876 38.2124 57.4158C38.2124 57.9556 37.774 58.394 37.2341 58.394Z" fill="#140A33"/>
<path d="M105.555 18.8437V50.7713C105.555 55.1356 102.005 58.6853 97.6378 58.6853H44.1045C43.5647 58.6853 43.1263 58.2502 43.1263 57.7104C43.1263 57.1705 43.5647 56.7322 44.1045 56.7322H97.6378C100.926 56.7322 103.599 54.056 103.599 50.7713V18.8437C103.599 15.559 100.926 12.8828 97.6378 12.8828H38.232C34.944 12.8828 32.2711 15.559 32.2711 18.8437V44.1299C32.2711 44.6697 31.8327 45.1049 31.2929 45.1049C30.7531 45.1049 30.3147 44.6697 30.3147 44.1299V18.8437C30.3147 14.4794 33.8677 10.9297 38.232 10.9297H97.6378C102.005 10.9297 105.555 14.4794 105.555 18.8437Z" fill="#140A33"/>
<path d="M103.599 19.4746H32.271V21.4376H103.599V19.4746Z" fill="#140A33"/>
<path d="M60.155 39.4253C60.1256 39.4253 60.0929 39.4253 60.0634 39.4253C60.0471 39.4253 60.0307 39.4253 60.0143 39.4253H51.7895C51.747 39.4253 51.7045 39.4253 51.6652 39.4253C49.8298 39.3795 48.3674 37.8778 48.3674 36.0098C48.3674 34.1417 49.9018 32.5909 51.7863 32.5909C51.8157 32.5909 51.8451 32.5909 51.8746 32.5909C52.3424 31.58 53.3599 30.9028 54.5311 30.9028C54.7863 30.9028 55.0382 30.9355 55.2836 31.0009C55.8987 30.2419 56.8343 29.7773 57.8355 29.7773C59.6447 29.7773 61.1136 31.2496 61.1136 33.0555C61.1136 33.278 61.0907 33.4972 61.0482 33.7131C62.2292 34.0926 63.0831 35.1984 63.0831 36.5005C63.0831 38.1134 61.7712 39.4286 60.155 39.4286V39.4253ZM60.0176 37.783C60.0405 37.783 60.0634 37.783 60.0896 37.783C60.1125 37.783 60.1354 37.783 60.1583 37.783C60.8715 37.783 61.4506 37.2039 61.4506 36.4907C61.4506 35.7775 60.8715 35.1984 60.1583 35.1984C60.1354 35.1984 60.1158 35.1984 60.0929 35.1984C60.0765 35.1984 60.0601 35.1984 60.0438 35.1984C60.0307 35.1984 60.0143 35.1984 60.0013 35.2017C59.6839 35.2442 59.3666 35.097 59.1964 34.8254C59.0263 34.5539 59.0329 34.2038 59.2095 33.9388C59.239 33.8963 59.2651 33.8505 59.288 33.8047C59.4156 33.5659 59.4778 33.3107 59.4778 33.0391C59.4778 32.1329 58.7417 31.3968 57.8355 31.3968C57.2008 31.3968 56.6151 31.7698 56.3469 32.3456C56.2487 32.5549 56.0688 32.712 55.8463 32.7807C55.6239 32.8494 55.385 32.8199 55.1887 32.7022C54.9924 32.5844 54.7634 32.5222 54.5311 32.5222C53.903 32.5222 53.3566 32.9868 53.2552 33.6051C53.2192 33.8341 53.0884 34.0337 52.8953 34.1613C52.7023 34.2889 52.4635 34.3249 52.241 34.2693C52.0938 34.23 51.94 34.2104 51.7895 34.2104C50.8048 34.2104 50.0065 35.0119 50.0065 35.9934C50.0065 36.9749 50.7688 37.7502 51.7405 37.7764H59.9227C59.9522 37.7764 59.9849 37.7731 60.0176 37.7731V37.783Z" fill="#140A34"/>
<path d="M98.4033 31.8999C98.3804 31.8999 98.3542 31.8999 98.3313 31.8999C98.3182 31.8999 98.3051 31.8999 98.2888 31.8999H91.6769C91.6409 31.8999 91.6049 31.8999 91.5689 31.8999C90.0116 31.8606 88.7651 30.5814 88.7651 28.9947C88.7651 27.4079 90.0541 26.1026 91.6441 26.0862C92.0629 25.2683 92.9103 24.7285 93.8787 24.7285C94.0619 24.7285 94.2451 24.7481 94.425 24.7874C94.9485 24.1854 95.7173 23.8223 96.5352 23.8223C98.0761 23.8223 99.3324 25.0753 99.3324 26.6195C99.3324 26.7602 99.3226 26.9008 99.2997 27.0415C100.242 27.4047 100.916 28.3207 100.916 29.3905C100.916 30.7777 99.7872 31.9031 98.4033 31.9031V31.8999ZM98.292 30.2608C98.3149 30.2608 98.3411 30.2608 98.364 30.2608C98.3771 30.2608 98.3902 30.2608 98.4033 30.2608C98.8875 30.2608 99.2801 29.8682 99.2801 29.384C99.2801 28.8998 98.8875 28.5072 98.4033 28.5072C98.3902 28.5072 98.3771 28.5072 98.3673 28.5072C98.3509 28.5072 98.3346 28.5072 98.3182 28.5072C98.0009 28.5497 97.677 28.4058 97.5069 28.131C97.3367 27.8594 97.3335 27.5126 97.5101 27.2444C97.5298 27.2149 97.5494 27.1822 97.5658 27.1495C97.6541 26.9794 97.6999 26.7994 97.6999 26.6097C97.6999 25.9684 97.1797 25.4483 96.5385 25.4483C96.0903 25.4483 95.678 25.71 95.4883 26.1189C95.3901 26.3283 95.2102 26.4854 94.9877 26.5541C94.7685 26.6228 94.5264 26.5933 94.3301 26.4755C94.1927 26.3937 94.0422 26.3512 93.8819 26.3512C93.4566 26.3512 93.0837 26.6686 93.0149 27.0873C92.979 27.3163 92.8481 27.5159 92.6551 27.6435C92.462 27.7711 92.2265 27.8071 92.0007 27.7515C91.8961 27.7253 91.7848 27.7089 91.6769 27.7089C90.9735 27.7089 90.4042 28.2815 90.4042 28.9816C90.4042 29.6817 90.9473 30.2346 91.6441 30.2542H98.2103C98.2364 30.2542 98.2659 30.251 98.2953 30.251L98.292 30.2608Z" fill="#140A34"/>
<path d="M73.405 25.6126H62.4648C60.6098 25.6126 59.1016 24.0128 59.1016 22.0465V20.4991C59.1016 19.956 59.54 19.5176 60.083 19.5176H75.7867C76.3298 19.5176 76.7682 19.956 76.7682 20.4991V22.0465C76.7682 24.0128 75.26 25.6126 73.405 25.6126ZM61.0645 21.4805V22.0465C61.0645 22.9299 61.6927 23.6496 62.4648 23.6496H73.405C74.1771 23.6496 74.8053 22.9299 74.8053 22.0465V21.4805H61.0645Z" fill="#140A33"/>
<path d="M82.0944 52.0213C81.957 52.0213 81.8163 51.9853 81.6855 51.9133C68.3439 44.2381 54.9205 47.0942 46.0053 50.8435C45.5898 51.0169 45.1089 50.8239 44.9355 50.4051C44.7589 49.9896 44.9552 49.5087 45.3739 49.3353C54.626 45.4454 68.5794 42.4846 82.5034 50.4967C82.896 50.7225 83.0301 51.223 82.8044 51.6123C82.6539 51.8741 82.379 52.0213 82.0944 52.0213Z" fill="#140A34"/>
<path d="M97.1471 58.5641C96.9214 58.5641 96.6957 58.4725 96.5354 58.2893C84.6889 44.9379 60.7374 58.1781 60.4986 58.3122C60.106 58.5347 59.6055 58.394 59.383 58.0014C59.1605 57.6088 59.3012 57.1083 59.6938 56.8891C59.949 56.7451 66.044 53.3427 73.7813 51.6218C84.1752 49.3088 92.4655 51.239 97.7589 57.2031C98.0599 57.5401 98.0272 58.057 97.6902 58.358C97.5332 58.4954 97.3402 58.5641 97.1471 58.5641Z" fill="#140A34"/>
<path d="M88.8567 49.4623C87.2406 49.4623 85.9188 48.8734 85.0355 47.7643C84.018 46.4819 83.7007 44.5942 84.1653 42.5821C84.9112 39.3629 86.0497 36.0684 88.86 36.0684C92.1774 36.0684 93.2145 40.9823 93.558 42.5952C94.0161 44.761 93.7216 46.6291 92.727 47.856C92.1349 48.5888 90.98 49.4623 88.86 49.4623H88.8567ZM88.8567 37.7042C87.5514 37.7042 86.5961 39.3203 85.7553 42.9485C85.4019 44.4698 85.6048 45.8537 86.3147 46.7436C86.8774 47.4503 87.7575 47.8265 88.8567 47.8265C90.0411 47.8265 90.9146 47.4895 91.4544 46.8254C92.1316 45.9911 92.3083 44.6105 91.955 42.9322C91.2221 39.461 90.1785 37.7009 88.86 37.7009L88.8567 37.7042Z" fill="#140A33"/>
<path d="M88.8567 53.4249C88.4052 53.4249 88.0388 53.0585 88.0388 52.607V45.4488C88.0388 44.9973 88.4052 44.6309 88.8567 44.6309C89.3082 44.6309 89.6746 44.9973 89.6746 45.4488V52.607C89.6746 53.0585 89.3082 53.4249 88.8567 53.4249Z" fill="#140A33"/>
<path d="M74.681 44.5424C73.0648 44.5424 71.7431 43.9535 70.8597 42.8444C69.8423 41.562 69.5249 39.6742 69.9895 37.6622C70.7354 34.4429 71.8739 31.1484 74.6842 31.1484C78.0016 31.1484 79.0387 36.0624 79.3823 37.6753C79.8403 39.8411 79.5458 41.7092 78.5513 42.936C77.9591 43.6689 76.8042 44.5424 74.6842 44.5424H74.681ZM74.681 32.7842C73.3756 32.7842 72.4203 34.4004 71.5795 38.0286C71.2262 39.5499 71.429 40.9338 72.1389 41.8237C72.7016 42.5303 73.5817 42.9066 74.681 42.9066C75.8653 42.9066 76.7388 42.5696 77.2786 41.9055C77.9558 41.0712 78.1325 39.6906 77.7792 38.0123C77.0463 34.5411 76.0027 32.781 74.6842 32.781L74.681 32.7842Z" fill="#140A33"/>
<path d="M74.6809 48.505C74.2295 48.505 73.863 48.1386 73.863 47.6871V40.5288C73.863 40.0774 74.2295 39.7109 74.6809 39.7109C75.1324 39.7109 75.4988 40.0774 75.4988 40.5288V47.6871C75.4988 48.1386 75.1324 48.505 74.6809 48.505Z" fill="#140A33"/>
<path d="M86.9494 70.9047H63.3938C62.8507 70.9047 62.4124 70.4663 62.4124 69.9232V66.416C62.4124 63.4781 64.8006 61.0898 67.7385 61.0898H82.6047C85.5426 61.0898 87.9309 63.4781 87.9309 66.416V69.9232C87.9309 70.4663 87.4925 70.9047 86.9494 70.9047ZM64.3753 68.9417H85.9679V66.416C85.9679 64.561 84.4597 63.0528 82.6047 63.0528H67.7385C65.8835 63.0528 64.3753 64.561 64.3753 66.416V68.9417Z" fill="#140A33"/>
<path d="M75.1717 94.4599C74.6286 94.4599 74.1902 94.0215 74.1902 93.4784V69.9229C74.1902 69.3798 74.6286 68.9414 75.1717 68.9414C75.7148 68.9414 76.1531 69.3798 76.1531 69.9229V93.4784C76.1531 94.0215 75.7148 94.4599 75.1717 94.4599Z" fill="#140A33"/>
<path d="M83.0236 95.0782H67.3199C66.7768 95.0782 66.3384 94.6398 66.3384 94.0967C66.3384 93.5536 66.7768 93.1152 67.3199 93.1152H83.0236C83.5667 93.1152 84.005 93.5536 84.005 94.0967C84.005 94.6398 83.5667 95.0782 83.0236 95.0782Z" fill="#140A33"/>
<path d="M35.8273 60.0236H35.5688L35.5819 59.9844C35.667 59.9844 35.7488 59.9975 35.8273 60.0236Z" fill="#140A33"/>
<path d="M50.903 86.5723H10.1683C7.8716 86.5723 6.00024 88.4403 6.00024 90.7403V90.9071C6.00024 93.2071 7.8716 95.0784 10.1683 95.0784H50.903C53.203 95.0784 55.0743 93.2071 55.0743 90.9071V90.7403C55.0743 88.4403 53.203 86.5723 50.903 86.5723ZM53.1114 90.9071C53.1114 92.1242 52.1201 93.1155 50.903 93.1155H10.1683C8.95123 93.1155 7.96321 92.1242 7.96321 90.9071V90.7403C7.96321 89.5232 8.95123 88.5352 10.1683 88.5352H50.903C52.1201 88.5352 53.1114 89.5232 53.1114 90.7403V90.9071Z" fill="#140A33"/>
<path d="M17.8924 76.293L15.7299 86.5724H13.7244L15.8869 76.293H17.8924Z" fill="#140A33"/>
<path d="M35.5819 59.9844L35.5688 60.0236H35.8273C35.7488 59.9975 35.667 59.9844 35.5819 59.9844Z" fill="#140A33"/>
<path d="M53.831 61.747C52.9804 60.6249 51.6717 59.9804 50.2486 59.9804H43.9148L45.9137 53.9017C46.6924 51.5265 46.3063 49.0008 44.8505 46.9692C43.4011 44.9473 41.1437 43.7728 38.6573 43.7499L22.9242 43.6027L13.7996 25.9066C12.7429 23.8586 10.1813 23.0243 8.08743 24.045L2.7678 26.646C0.929154 27.5424 1.80304e-05 29.6002 0.556191 31.5403L8.24119 58.3478C8.82681 60.3959 9.12452 62.5126 9.12452 64.6424V71.0875C9.12452 73.9599 11.5063 76.2926 14.4311 76.2926H42.6258L45.4263 86.572H47.4154C47.4187 86.4738 47.4088 86.3757 47.3827 86.2775L44.6607 76.2926H47.507C49.8887 76.2926 51.9924 74.7189 52.6238 72.4648L54.5573 65.5323C54.9237 64.2171 54.6587 62.8397 53.831 61.747ZM38.6377 45.7096C40.4927 45.726 42.1743 46.6028 43.2572 48.111C44.3434 49.629 44.6313 51.5134 44.0489 53.2899L38.6311 69.7854C38.3269 70.7079 37.3617 71.215 36.4359 70.9402L36.148 70.8552C35.6867 70.721 35.3072 70.4102 35.0814 69.9849C34.8524 69.5596 34.8066 69.0689 34.9506 68.6043L39.521 53.941C39.8809 52.7861 39.6748 51.5691 38.9616 50.5974C38.2484 49.629 37.1491 49.0728 35.9484 49.0728H15.37C14.3885 49.0728 13.5903 48.268 13.5903 47.2833C13.5903 46.8023 13.7767 46.3476 14.1203 46.0106C14.454 45.6769 14.8989 45.4937 15.37 45.4937H15.3864L38.6377 45.7096ZM35.8274 60.0229H35.5689L35.582 59.9836C35.582 59.9836 35.5591 59.9804 35.546 59.9804C32.9843 59.9804 30.6811 58.5965 29.523 56.3587L26.6832 51.0325H35.9484C36.5177 51.0325 37.0411 51.2975 37.3814 51.7588C37.7216 52.2234 37.8198 52.8057 37.6464 53.3554L35.582 59.9836C35.6671 59.9836 35.7488 59.9967 35.8274 60.0229ZM10.6687 60.0229C10.528 59.2737 10.3514 58.5343 10.142 57.8015L2.45699 30.9939C2.16582 29.9797 2.6631 28.8968 3.63477 28.4224L8.9544 25.8215C10.0896 25.2686 11.4768 25.7136 12.0428 26.8128L20.6864 43.5831L15.406 43.534C14.3951 43.534 13.4529 43.907 12.7396 44.6169C12.0232 45.3268 11.6273 46.2723 11.6273 47.2833C11.6273 49.3509 13.3056 51.0325 15.37 51.0325H24.4422L27.7727 57.278C28.3321 58.3576 29.1009 59.2868 30.0137 60.0229H10.6687ZM52.6532 64.999L50.7197 71.9315C50.3271 73.335 49.0054 74.3165 47.507 74.3165H14.4311C12.5957 74.3165 11.1038 72.8672 11.1038 71.0875V64.6424C11.1038 63.7558 11.0548 62.8692 10.9599 61.9858H34.9571L33.0759 68.022C32.775 68.9904 32.8731 70.0176 33.3508 70.9108C33.8284 71.8039 34.6234 72.4517 35.5951 72.7363L35.883 72.8214C36.2396 72.9294 36.5995 72.9784 36.9528 72.9784C38.5264 72.9784 39.9758 71.9773 40.4927 70.3971L43.267 61.9597H50.2486C51.0501 61.9597 51.783 62.3195 52.2574 62.9444C52.7088 63.5366 52.8528 64.2891 52.6532 64.999Z" fill="#140A33"/>
</g>
<defs>
<clipPath id="clip0_6238_44341">
<rect width="106" height="106" fill="white"/>
</clipPath>
</defs>
</svg>
