<svg width="106" height="106" viewBox="0 0 106 106" fill="none" xmlns="http://www.w3.org/2000/svg">
<g clip-path="url(#clip0_6238_44404)">
<path d="M56.4515 11.5684H20.8892C17.1595 11.5684 14.1333 14.5161 14.1333 18.1541V87.4271C14.1333 91.0651 17.1595 94.0128 20.8892 94.0128H56.4515C60.1811 94.0128 63.2074 91.0651 63.2074 87.4271V18.1541C63.2074 14.5161 60.1811 11.5684 56.4515 11.5684Z" fill="white"/>
<path d="M59.118 59.943V28.8268C59.118 26.1801 56.9554 24.0273 54.2956 24.0273H23.0452C20.3887 24.0273 18.2229 26.1801 18.2229 28.8268V59.9398C18.2229 61.5363 19.0114 62.9529 20.2219 63.8264C19.0146 64.6999 18.2229 66.1165 18.2229 67.7164V76.4744C18.2229 79.1212 20.3854 81.2739 23.0452 81.2739H54.2956C56.9522 81.2739 59.118 79.1212 59.118 76.4744V67.7164C59.118 66.1165 58.3295 64.6999 57.1157 63.8264C58.3262 62.9529 59.118 61.5363 59.118 59.9398V59.943ZM54.2956 62.9202C53.7885 62.9202 53.3796 63.3324 53.3796 63.833C53.3796 64.3335 53.7885 64.7457 54.2956 64.7457C55.9412 64.7457 57.2859 66.0805 57.2859 67.7262V76.4843C57.2859 78.1233 55.9445 79.4614 54.2956 79.4614H23.0452C21.3964 79.4614 20.0517 78.1266 20.0517 76.4843V67.7262C20.0517 66.0838 21.3931 64.7457 23.0452 64.7457C23.5523 64.7457 23.9613 64.3368 23.9613 63.833C23.9613 63.3291 23.5523 62.9202 23.0452 62.9202" fill="#CFE3F3"/>
<path d="M59.118 59.943V28.8268C59.118 26.1801 56.9554 24.0273 54.2956 24.0273H23.0452C20.3887 24.0273 18.2229 26.1801 18.2229 28.8268V59.9398C18.2229 61.5363 19.0114 62.9529 20.2219 63.8264C19.0146 64.6999 18.2229 66.1165 18.2229 67.7164V76.4744C18.2229 79.1212 20.3854 81.2739 23.0452 81.2739H54.2956C56.9522 81.2739 59.118 79.1212 59.118 76.4744V67.7164C59.118 66.1165 58.3295 64.6999 57.1157 63.8264C58.3262 62.9529 59.118 61.5363 59.118 59.9398V59.943ZM23.0452 62.9202C21.3964 62.9202 20.0517 61.5854 20.0517 59.943V28.8268C20.0517 27.1877 21.3931 25.8496 23.0452 25.8496H54.2956C55.9412 25.8496 57.2859 27.1844 57.2859 28.8268V59.9398C57.2859 61.5788 55.9445 62.9169 54.2956 62.9169" fill="#86BAE0"/>
<path d="M56.4515 10.5859H20.8892C16.623 10.5859 13.1519 13.9819 13.1519 18.1532V87.4261C13.1519 91.5974 16.623 94.9933 20.8892 94.9933H56.4515C60.7177 94.9933 64.1889 91.5974 64.1889 87.4261V18.1532C64.1889 13.9819 60.7177 10.5859 56.4515 10.5859ZM15.1148 21.8599H62.1343C62.1638 21.8599 62.1932 21.8533 62.2227 21.8501V83.5591H15.1148V21.8599ZM20.8892 12.5489H56.4515C59.6348 12.5489 62.2259 15.0615 62.2259 18.1532V19.9067C62.1965 19.9067 62.167 19.8969 62.1376 19.8969H15.1148V18.1532C15.1148 15.0615 17.7059 12.5489 20.8892 12.5489ZM56.4515 93.0304H20.8892C17.7059 93.0304 15.1148 90.5178 15.1148 87.4261V85.522H62.2259V87.4261C62.2259 90.5178 59.6348 93.0304 56.4515 93.0304Z" fill="#140A34"/>
<path d="M35.3987 17.4532H41.9419C42.485 17.4532 42.9234 17.0148 42.9234 16.4717C42.9234 15.9286 42.485 15.4902 41.9419 15.4902H35.3987C34.8556 15.4902 34.4172 15.9286 34.4172 16.4717C34.4172 17.0148 34.8556 17.4532 35.3987 17.4532Z" fill="#140A34"/>
<path d="M54.2956 24.0254H23.0452C20.3887 24.0254 18.2229 26.1781 18.2229 28.8248V59.9378C18.2229 61.5343 19.0114 62.9509 20.2219 63.8245C19.0146 64.698 18.2229 66.1146 18.2229 67.7144V76.4725C18.2229 79.1192 20.3854 81.2719 23.0452 81.2719H54.2956C56.9522 81.2719 59.118 79.1192 59.118 76.4725V67.7144C59.118 66.1146 58.3295 64.698 57.1157 63.8245C58.3262 62.9509 59.118 61.5343 59.118 59.9378V28.8248C59.118 26.1781 56.9554 24.0254 54.2956 24.0254ZM57.2859 59.9411C57.2859 61.5801 55.9445 62.9182 54.2956 62.9182C53.7885 62.9182 53.3796 63.3304 53.3796 63.831C53.3796 64.3316 53.7885 64.7438 54.2956 64.7438C55.9412 64.7438 57.2859 66.0786 57.2859 67.7242V76.4823C57.2859 78.1214 55.9445 79.4595 54.2956 79.4595H23.0452C21.3964 79.4595 20.0517 78.1246 20.0517 76.4823V67.7242C20.0517 66.0819 21.3931 64.7438 23.0452 64.7438C23.5523 64.7438 23.9613 64.3348 23.9613 63.831C23.9613 63.3272 23.5523 62.9182 23.0452 62.9182C21.3964 62.9182 20.0517 61.5834 20.0517 59.9411V28.8248C20.0517 27.1858 21.3931 25.8477 23.0452 25.8477H54.2956C55.9412 25.8477 57.2859 27.1825 57.2859 28.8248V59.9378V59.9411Z" fill="#140A34"/>
<path d="M39.6453 64.7416C40.1524 64.7416 40.5614 64.3326 40.5614 63.8288C40.5614 63.325 40.1524 62.916 39.6453 62.916H37.6922C37.1883 62.916 36.7761 63.325 36.7761 63.8288C36.7761 64.3326 37.1851 64.7416 37.6922 64.7416H39.6453Z" fill="#140A34"/>
<path d="M33.7859 64.7416C34.2898 64.7416 34.702 64.3326 34.702 63.8288C34.702 63.325 34.293 62.916 33.7859 62.916H31.8328C31.329 62.916 30.9167 63.325 30.9167 63.8288C30.9167 64.3326 31.3257 64.7416 31.8328 64.7416H33.7859Z" fill="#140A34"/>
<path d="M25.9732 64.7416H27.9263C28.4302 64.7416 28.8424 64.3326 28.8424 63.8288C28.8424 63.325 28.4334 62.916 27.9263 62.916H25.9732C25.4661 62.916 25.0571 63.325 25.0571 63.8288C25.0571 64.3326 25.4661 64.7416 25.9732 64.7416Z" fill="#140A34"/>
<path d="M45.5047 64.7416C46.0118 64.7416 46.4207 64.3326 46.4207 63.8288C46.4207 63.325 46.0118 62.916 45.5047 62.916H43.5515C43.0477 62.916 42.6355 63.325 42.6355 63.8288C42.6355 64.3326 43.0444 64.7416 43.5515 64.7416H45.5047Z" fill="#140A34"/>
<path d="M51.3643 62.918H49.4112C48.9041 62.918 48.4951 63.3269 48.4951 63.8307C48.4951 64.3346 48.9041 64.7435 49.4112 64.7435H51.3643C51.8714 64.7435 52.2804 64.3346 52.2804 63.8307C52.2804 63.3269 51.8714 62.918 51.3643 62.918Z" fill="#140A34"/>
<path d="M27.9428 33.6309H29.7553C30.0007 33.6309 30.2035 33.8304 30.2035 34.0791V35.8915C30.2035 36.1369 30.0039 36.3397 29.7553 36.3397H27.9428C27.6942 36.3397 27.4946 36.1402 27.4946 35.8915V34.0823C27.4946 33.8337 27.6942 33.6341 27.9428 33.6341V33.6309Z" fill="#140A34"/>
<path d="M51.5931 29.2598H25.7475C24.308 29.2598 23.1367 30.431 23.1367 31.8705V57.7162C23.1367 59.1557 24.308 60.3269 25.7475 60.3269H51.5931C53.0326 60.3269 54.2006 59.1557 54.2006 57.7162V31.8705C54.2006 30.431 53.0294 29.2598 51.5899 29.2598H51.5931ZM25.3745 31.8705C25.3745 31.6644 25.5413 31.4975 25.7475 31.4975H31.9635C32.1696 31.4975 32.3365 31.6644 32.3365 31.8705V38.0996C32.3365 38.3058 32.1696 38.4726 31.9635 38.4726H25.7344C25.561 38.4726 25.4138 38.3516 25.3745 38.1912V31.8738V31.8705ZM32.3365 57.7162C32.3365 57.9223 32.1696 58.0891 31.9635 58.0891H25.7475C25.5413 58.0891 25.3745 57.9223 25.3745 57.7162V51.3987C25.4138 51.2351 25.561 51.1174 25.7344 51.1174H31.9635C32.1696 51.1174 32.3365 51.2842 32.3365 51.4903V57.7195V57.7162ZM51.9661 57.7162C51.9661 57.9223 51.7992 58.0891 51.5931 58.0891H34.5448C34.5612 57.9681 34.5742 57.8438 34.5742 57.7162V51.487C34.5742 50.0475 33.403 48.8796 31.9635 48.8796H25.7344C25.6101 48.8796 25.4923 48.8894 25.3745 48.9058V40.6809C25.4923 40.6973 25.6133 40.7104 25.7344 40.7104H31.9635C33.403 40.7104 34.5742 39.5391 34.5742 38.1029V31.8738C34.5742 31.7462 34.5644 31.6219 34.5448 31.5008H42.7827C42.7663 31.6219 42.7533 31.7462 42.7533 31.8738V38.1029C42.7533 39.5424 43.9245 40.7104 45.364 40.7104H51.5931C51.7207 40.7104 51.845 40.7006 51.9661 40.6842V57.7195V57.7162ZM51.9661 38.0996C51.9661 38.3058 51.7992 38.4726 51.5931 38.4726H45.364C45.1579 38.4726 44.991 38.3058 44.991 38.0996V31.8705C44.991 31.6644 45.1579 31.4975 45.364 31.4975H51.5931C51.7992 31.4975 51.9661 31.6644 51.9661 31.8705V38.0996Z" fill="#140A34"/>
<path d="M27.658 43.4395H25.8488C25.6013 43.4395 25.4006 43.6401 25.4006 43.8877V45.6969C25.4006 45.9444 25.6013 46.1451 25.8488 46.1451H27.658C27.9056 46.1451 28.1063 45.9444 28.1063 45.6969V43.8877C28.1063 43.6401 27.9056 43.4395 27.658 43.4395Z" fill="#140A34"/>
<path d="M35.86 43.8877C35.86 43.639 35.6604 43.4395 35.4118 43.4395H33.5993C33.3507 43.4395 33.1511 43.639 33.1511 43.8877V45.7001C33.1511 45.9488 33.3507 46.1483 33.5993 46.1483H35.8567V43.8909L35.86 43.8877Z" fill="#140A34"/>
<path d="M41.2714 43.8877C41.2714 43.639 41.0718 43.4395 40.8232 43.4395H39.0107C38.7621 43.4395 38.5625 43.639 38.5625 43.8877V46.1451H41.2681V43.8877H41.2714Z" fill="#140A34"/>
<path d="M38.5657 46.1445H35.8601V48.4019C35.8601 48.6506 36.0597 48.8501 36.3083 48.8501H38.1175C38.3662 48.8501 38.5657 48.6506 38.5657 48.4019V46.1445Z" fill="#140A34"/>
<path d="M48.9398 43.4388H44.425C44.1764 43.4388 43.9768 43.6384 43.9768 43.887V46.1444H48.9398C49.1885 46.1444 49.388 45.9449 49.388 45.6962V43.8838C49.388 43.6351 49.1885 43.4355 48.9398 43.4355V43.4388Z" fill="#140A34"/>
<path d="M41.2712 51.1076C41.2712 51.3562 41.4708 51.5558 41.7194 51.5558H43.9769V46.1445H41.2712V51.1076Z" fill="#140A34"/>
<path d="M40.8231 38.0273H39.0139C38.7663 38.0273 38.5657 38.228 38.5657 38.4756V40.2848C38.5657 40.5323 38.7663 40.733 39.0139 40.733H40.8231C41.0706 40.733 41.2713 40.5323 41.2713 40.2848V38.4756C41.2713 38.228 41.0706 38.0273 40.8231 38.0273Z" fill="#140A34"/>
<path d="M44.4252 54.2616H46.2376C46.4863 54.2616 46.6858 54.0621 46.6858 53.8134V52.0009C46.6858 51.7523 46.4863 51.5527 46.2376 51.5527H43.9802V53.8101C43.9802 54.0588 44.1798 54.2584 44.4284 54.2584L44.4252 54.2616Z" fill="#140A34"/>
<path d="M39.014 54.2617H40.8232C41.0685 54.2617 41.2714 54.4613 41.2714 54.7099V56.5224C41.2714 56.7678 41.0718 56.9706 40.8232 56.9706H39.0107C38.7653 56.9706 38.5625 56.771 38.5625 56.5224V54.7099C38.5625 54.4613 38.7621 54.2617 39.0107 54.2617H39.014Z" fill="#140A34"/>
<path d="M47.5724 33.6302H49.3848C49.6335 33.6302 49.8331 33.8298 49.8331 34.0784V35.8876C49.8331 36.1363 49.6335 36.3358 49.3848 36.3358H47.5756C47.327 36.3358 47.1274 36.1363 47.1274 35.8876V34.0752C47.1274 33.8298 47.327 33.627 47.5756 33.627L47.5724 33.6302Z" fill="#140A34"/>
<path d="M27.9428 53.2474H29.7553C30.0039 53.2474 30.2035 53.447 30.2035 53.6956V55.5048C30.2035 55.7535 30.0039 55.953 29.7553 55.953H27.9428C27.6975 55.953 27.4946 55.7535 27.4946 55.5048V53.6923C27.4946 53.447 27.6942 53.2441 27.9428 53.2441V53.2474Z" fill="#140A34"/>
<path d="M48.8451 69.6641H25.2896C24.7465 69.6641 24.3081 70.1025 24.3081 70.6455C24.3081 71.1886 24.7465 71.627 25.2896 71.627H48.8451C49.3882 71.627 49.8266 71.1886 49.8266 70.6455C49.8266 70.1025 49.3882 69.6641 48.8451 69.6641Z" fill="#140A34"/>
<path d="M37.0803 74.1328H25.3025C24.7594 74.1328 24.321 74.5712 24.321 75.1143C24.321 75.6574 24.7594 76.0958 25.3025 76.0958H37.0803C37.6234 76.0958 38.0618 75.6574 38.0618 75.1143C38.0618 74.5712 37.6234 74.1328 37.0803 74.1328Z" fill="#140A34"/>
<path d="M76.1629 86.0246C84.8358 86.0246 91.8666 78.9938 91.8666 70.3209C91.8666 61.648 84.8358 54.6172 76.1629 54.6172C67.49 54.6172 60.4592 61.648 60.4592 70.3209C60.4592 78.9938 67.49 86.0246 76.1629 86.0246Z" fill="white"/>
<path d="M79.7421 76.2309H72.43L69.322 72.0105H69.3384L65.6545 66.9919C66.6622 66.0104 67.8073 65.1696 69.0537 64.4989L73.1629 70.0966L76.1008 74.0945L77.6319 72.0105L83.1805 64.4531C84.4336 65.114 85.5819 65.9482 86.5961 66.9232L85.7095 68.1304L79.7453 76.2309H79.7421Z" fill="#86BAE0"/>
<path d="M76.163 87.0051C66.9632 87.0051 59.4778 79.5197 59.4778 70.32C59.4778 61.1202 66.9632 53.6348 76.163 53.6348C85.3627 53.6348 92.8481 61.1202 92.8481 70.32C92.8481 79.5197 85.3627 87.0051 76.163 87.0051ZM76.163 55.5977C68.0461 55.5977 61.4407 62.2031 61.4407 70.32C61.4407 78.4368 68.0461 85.0422 76.163 85.0422C84.2798 85.0422 90.8852 78.4368 90.8852 70.32C90.8852 62.2031 84.2798 55.5977 76.163 55.5977Z" fill="#140A34"/>
</g>
<defs>
<clipPath id="clip0_6238_44404">
<rect width="106" height="106" fill="white"/>
</clipPath>
</defs>
</svg>
